<?xml version="1.0" encoding="utf-8" standalone="no"?>
<!DOCTYPE svg PUBLIC "-//W3C//DTD SVG 1.1//EN"
  "http://www.w3.org/Graphics/SVG/1.1/DTD/svg11.dtd">
<svg xmlns:xlink="http://www.w3.org/1999/xlink" width="460.8pt" height="345.6pt" viewBox="0 0 460.8 345.6" xmlns="http://www.w3.org/2000/svg" version="1.1">
 <metadata>
  <rdf:RDF xmlns:dc="http://purl.org/dc/elements/1.1/" xmlns:cc="http://creativecommons.org/ns#" xmlns:rdf="http://www.w3.org/1999/02/22-rdf-syntax-ns#">
   <cc:Work>
    <dc:type rdf:resource="http://purl.org/dc/dcmitype/StillImage"/>
    <dc:date>2025-08-16T00:27:45.817019</dc:date>
    <dc:format>image/svg+xml</dc:format>
    <dc:creator>
     <cc:Agent>
      <dc:title>Matplotlib v3.10.0, https://matplotlib.org/</dc:title>
     </cc:Agent>
    </dc:creator>
   </cc:Work>
  </rdf:RDF>
 </metadata>
 <defs>
  <style type="text/css">*{stroke-linejoin: round; stroke-linecap: butt}</style>
 </defs>
 <g id="figure_1">
  <g id="patch_1">
   <path d="M 0 345.6 
L 460.8 345.6 
L 460.8 0 
L 0 0 
z
" style="fill: #ffffff"/>
  </g>
  <g id="axes_1">
   <g id="patch_2">
    <path d="M 47.72 303.64 
L 450 303.64 
L 450 26.88 
L 47.72 26.88 
z
" style="fill: #ffffff"/>
   </g>
   <g id="matplotlib.axis_1">
    <g id="xtick_1">
     <g id="line2d_1">
      <path d="M 66.005455 303.64 
L 66.005455 26.88 
" clip-path="url(#pc2bffa1d39)" style="fill: none; stroke: #b0b0b0; stroke-width: 0.8; stroke-linecap: square"/>
     </g>
     <g id="line2d_2">
      <defs>
       <path id="m4fb0009e26" d="M 0 0 
L 0 3.5 
" style="stroke: #000000; stroke-width: 0.8"/>
      </defs>
      <g>
       <use xlink:href="#m4fb0009e26" x="66.005455" y="303.64" style="stroke: #000000; stroke-width: 0.8"/>
      </g>
     </g>
     <g id="text_1">
      <!-- 0.0 -->
      <g transform="translate(58.053892 318.238437) scale(0.1 -0.1)">
       <defs>
        <path id="DejaVuSans-30" d="M 2034 4250 
Q 1547 4250 1301 3770 
Q 1056 3291 1056 2328 
Q 1056 1369 1301 889 
Q 1547 409 2034 409 
Q 2525 409 2770 889 
Q 3016 1369 3016 2328 
Q 3016 3291 2770 3770 
Q 2525 4250 2034 4250 
z
M 2034 4750 
Q 2819 4750 3233 4129 
Q 3647 3509 3647 2328 
Q 3647 1150 3233 529 
Q 2819 -91 2034 -91 
Q 1250 -91 836 529 
Q 422 1150 422 2328 
Q 422 3509 836 4129 
Q 1250 4750 2034 4750 
z
" transform="scale(0.015625)"/>
        <path id="DejaVuSans-2e" d="M 684 794 
L 1344 794 
L 1344 0 
L 684 0 
L 684 794 
z
" transform="scale(0.015625)"/>
       </defs>
       <use xlink:href="#DejaVuSans-30"/>
       <use xlink:href="#DejaVuSans-2e" transform="translate(63.623047 0)"/>
       <use xlink:href="#DejaVuSans-30" transform="translate(95.410156 0)"/>
      </g>
     </g>
    </g>
    <g id="xtick_2">
     <g id="line2d_3">
      <path d="M 139.147273 303.64 
L 139.147273 26.88 
" clip-path="url(#pc2bffa1d39)" style="fill: none; stroke: #b0b0b0; stroke-width: 0.8; stroke-linecap: square"/>
     </g>
     <g id="line2d_4">
      <g>
       <use xlink:href="#m4fb0009e26" x="139.147273" y="303.64" style="stroke: #000000; stroke-width: 0.8"/>
      </g>
     </g>
     <g id="text_2">
      <!-- 0.2 -->
      <g transform="translate(131.19571 318.238437) scale(0.1 -0.1)">
       <defs>
        <path id="DejaVuSans-32" d="M 1228 531 
L 3431 531 
L 3431 0 
L 469 0 
L 469 531 
Q 828 903 1448 1529 
Q 2069 2156 2228 2338 
Q 2531 2678 2651 2914 
Q 2772 3150 2772 3378 
Q 2772 3750 2511 3984 
Q 2250 4219 1831 4219 
Q 1534 4219 1204 4116 
Q 875 4013 500 3803 
L 500 4441 
Q 881 4594 1212 4672 
Q 1544 4750 1819 4750 
Q 2544 4750 2975 4387 
Q 3406 4025 3406 3419 
Q 3406 3131 3298 2873 
Q 3191 2616 2906 2266 
Q 2828 2175 2409 1742 
Q 1991 1309 1228 531 
z
" transform="scale(0.015625)"/>
       </defs>
       <use xlink:href="#DejaVuSans-30"/>
       <use xlink:href="#DejaVuSans-2e" transform="translate(63.623047 0)"/>
       <use xlink:href="#DejaVuSans-32" transform="translate(95.410156 0)"/>
      </g>
     </g>
    </g>
    <g id="xtick_3">
     <g id="line2d_5">
      <path d="M 212.289091 303.64 
L 212.289091 26.88 
" clip-path="url(#pc2bffa1d39)" style="fill: none; stroke: #b0b0b0; stroke-width: 0.8; stroke-linecap: square"/>
     </g>
     <g id="line2d_6">
      <g>
       <use xlink:href="#m4fb0009e26" x="212.289091" y="303.64" style="stroke: #000000; stroke-width: 0.8"/>
      </g>
     </g>
     <g id="text_3">
      <!-- 0.4 -->
      <g transform="translate(204.337528 318.238437) scale(0.1 -0.1)">
       <defs>
        <path id="DejaVuSans-34" d="M 2419 4116 
L 825 1625 
L 2419 1625 
L 2419 4116 
z
M 2253 4666 
L 3047 4666 
L 3047 1625 
L 3713 1625 
L 3713 1100 
L 3047 1100 
L 3047 0 
L 2419 0 
L 2419 1100 
L 313 1100 
L 313 1709 
L 2253 4666 
z
" transform="scale(0.015625)"/>
       </defs>
       <use xlink:href="#DejaVuSans-30"/>
       <use xlink:href="#DejaVuSans-2e" transform="translate(63.623047 0)"/>
       <use xlink:href="#DejaVuSans-34" transform="translate(95.410156 0)"/>
      </g>
     </g>
    </g>
    <g id="xtick_4">
     <g id="line2d_7">
      <path d="M 285.430909 303.64 
L 285.430909 26.88 
" clip-path="url(#pc2bffa1d39)" style="fill: none; stroke: #b0b0b0; stroke-width: 0.8; stroke-linecap: square"/>
     </g>
     <g id="line2d_8">
      <g>
       <use xlink:href="#m4fb0009e26" x="285.430909" y="303.64" style="stroke: #000000; stroke-width: 0.8"/>
      </g>
     </g>
     <g id="text_4">
      <!-- 0.6 -->
      <g transform="translate(277.479347 318.238437) scale(0.1 -0.1)">
       <defs>
        <path id="DejaVuSans-36" d="M 2113 2584 
Q 1688 2584 1439 2293 
Q 1191 2003 1191 1497 
Q 1191 994 1439 701 
Q 1688 409 2113 409 
Q 2538 409 2786 701 
Q 3034 994 3034 1497 
Q 3034 2003 2786 2293 
Q 2538 2584 2113 2584 
z
M 3366 4563 
L 3366 3988 
Q 3128 4100 2886 4159 
Q 2644 4219 2406 4219 
Q 1781 4219 1451 3797 
Q 1122 3375 1075 2522 
Q 1259 2794 1537 2939 
Q 1816 3084 2150 3084 
Q 2853 3084 3261 2657 
Q 3669 2231 3669 1497 
Q 3669 778 3244 343 
Q 2819 -91 2113 -91 
Q 1303 -91 875 529 
Q 447 1150 447 2328 
Q 447 3434 972 4092 
Q 1497 4750 2381 4750 
Q 2619 4750 2861 4703 
Q 3103 4656 3366 4563 
z
" transform="scale(0.015625)"/>
       </defs>
       <use xlink:href="#DejaVuSans-30"/>
       <use xlink:href="#DejaVuSans-2e" transform="translate(63.623047 0)"/>
       <use xlink:href="#DejaVuSans-36" transform="translate(95.410156 0)"/>
      </g>
     </g>
    </g>
    <g id="xtick_5">
     <g id="line2d_9">
      <path d="M 358.572727 303.64 
L 358.572727 26.88 
" clip-path="url(#pc2bffa1d39)" style="fill: none; stroke: #b0b0b0; stroke-width: 0.8; stroke-linecap: square"/>
     </g>
     <g id="line2d_10">
      <g>
       <use xlink:href="#m4fb0009e26" x="358.572727" y="303.64" style="stroke: #000000; stroke-width: 0.8"/>
      </g>
     </g>
     <g id="text_5">
      <!-- 0.8 -->
      <g transform="translate(350.621165 318.238437) scale(0.1 -0.1)">
       <defs>
        <path id="DejaVuSans-38" d="M 2034 2216 
Q 1584 2216 1326 1975 
Q 1069 1734 1069 1313 
Q 1069 891 1326 650 
Q 1584 409 2034 409 
Q 2484 409 2743 651 
Q 3003 894 3003 1313 
Q 3003 1734 2745 1975 
Q 2488 2216 2034 2216 
z
M 1403 2484 
Q 997 2584 770 2862 
Q 544 3141 544 3541 
Q 544 4100 942 4425 
Q 1341 4750 2034 4750 
Q 2731 4750 3128 4425 
Q 3525 4100 3525 3541 
Q 3525 3141 3298 2862 
Q 3072 2584 2669 2484 
Q 3125 2378 3379 2068 
Q 3634 1759 3634 1313 
Q 3634 634 3220 271 
Q 2806 -91 2034 -91 
Q 1263 -91 848 271 
Q 434 634 434 1313 
Q 434 1759 690 2068 
Q 947 2378 1403 2484 
z
M 1172 3481 
Q 1172 3119 1398 2916 
Q 1625 2713 2034 2713 
Q 2441 2713 2670 2916 
Q 2900 3119 2900 3481 
Q 2900 3844 2670 4047 
Q 2441 4250 2034 4250 
Q 1625 4250 1398 4047 
Q 1172 3844 1172 3481 
z
" transform="scale(0.015625)"/>
       </defs>
       <use xlink:href="#DejaVuSans-30"/>
       <use xlink:href="#DejaVuSans-2e" transform="translate(63.623047 0)"/>
       <use xlink:href="#DejaVuSans-38" transform="translate(95.410156 0)"/>
      </g>
     </g>
    </g>
    <g id="xtick_6">
     <g id="line2d_11">
      <path d="M 431.714545 303.64 
L 431.714545 26.88 
" clip-path="url(#pc2bffa1d39)" style="fill: none; stroke: #b0b0b0; stroke-width: 0.8; stroke-linecap: square"/>
     </g>
     <g id="line2d_12">
      <g>
       <use xlink:href="#m4fb0009e26" x="431.714545" y="303.64" style="stroke: #000000; stroke-width: 0.8"/>
      </g>
     </g>
     <g id="text_6">
      <!-- 1.0 -->
      <g transform="translate(423.762983 318.238437) scale(0.1 -0.1)">
       <defs>
        <path id="DejaVuSans-31" d="M 794 531 
L 1825 531 
L 1825 4091 
L 703 3866 
L 703 4441 
L 1819 4666 
L 2450 4666 
L 2450 531 
L 3481 531 
L 3481 0 
L 794 0 
L 794 531 
z
" transform="scale(0.015625)"/>
       </defs>
       <use xlink:href="#DejaVuSans-31"/>
       <use xlink:href="#DejaVuSans-2e" transform="translate(63.623047 0)"/>
       <use xlink:href="#DejaVuSans-30" transform="translate(95.410156 0)"/>
      </g>
     </g>
    </g>
    <g id="text_7">
     <!-- Recall -->
     <g transform="translate(233.942812 331.916562) scale(0.1 -0.1)">
      <defs>
       <path id="DejaVuSans-52" d="M 2841 2188 
Q 3044 2119 3236 1894 
Q 3428 1669 3622 1275 
L 4263 0 
L 3584 0 
L 2988 1197 
Q 2756 1666 2539 1819 
Q 2322 1972 1947 1972 
L 1259 1972 
L 1259 0 
L 628 0 
L 628 4666 
L 2053 4666 
Q 2853 4666 3247 4331 
Q 3641 3997 3641 3322 
Q 3641 2881 3436 2590 
Q 3231 2300 2841 2188 
z
M 1259 4147 
L 1259 2491 
L 2053 2491 
Q 2509 2491 2742 2702 
Q 2975 2913 2975 3322 
Q 2975 3731 2742 3939 
Q 2509 4147 2053 4147 
L 1259 4147 
z
" transform="scale(0.015625)"/>
       <path id="DejaVuSans-65" d="M 3597 1894 
L 3597 1613 
L 953 1613 
Q 991 1019 1311 708 
Q 1631 397 2203 397 
Q 2534 397 2845 478 
Q 3156 559 3463 722 
L 3463 178 
Q 3153 47 2828 -22 
Q 2503 -91 2169 -91 
Q 1331 -91 842 396 
Q 353 884 353 1716 
Q 353 2575 817 3079 
Q 1281 3584 2069 3584 
Q 2775 3584 3186 3129 
Q 3597 2675 3597 1894 
z
M 3022 2063 
Q 3016 2534 2758 2815 
Q 2500 3097 2075 3097 
Q 1594 3097 1305 2825 
Q 1016 2553 972 2059 
L 3022 2063 
z
" transform="scale(0.015625)"/>
       <path id="DejaVuSans-63" d="M 3122 3366 
L 3122 2828 
Q 2878 2963 2633 3030 
Q 2388 3097 2138 3097 
Q 1578 3097 1268 2742 
Q 959 2388 959 1747 
Q 959 1106 1268 751 
Q 1578 397 2138 397 
Q 2388 397 2633 464 
Q 2878 531 3122 666 
L 3122 134 
Q 2881 22 2623 -34 
Q 2366 -91 2075 -91 
Q 1284 -91 818 406 
Q 353 903 353 1747 
Q 353 2603 823 3093 
Q 1294 3584 2113 3584 
Q 2378 3584 2631 3529 
Q 2884 3475 3122 3366 
z
" transform="scale(0.015625)"/>
       <path id="DejaVuSans-61" d="M 2194 1759 
Q 1497 1759 1228 1600 
Q 959 1441 959 1056 
Q 959 750 1161 570 
Q 1363 391 1709 391 
Q 2188 391 2477 730 
Q 2766 1069 2766 1631 
L 2766 1759 
L 2194 1759 
z
M 3341 1997 
L 3341 0 
L 2766 0 
L 2766 531 
Q 2569 213 2275 61 
Q 1981 -91 1556 -91 
Q 1019 -91 701 211 
Q 384 513 384 1019 
Q 384 1609 779 1909 
Q 1175 2209 1959 2209 
L 2766 2209 
L 2766 2266 
Q 2766 2663 2505 2880 
Q 2244 3097 1772 3097 
Q 1472 3097 1187 3025 
Q 903 2953 641 2809 
L 641 3341 
Q 956 3463 1253 3523 
Q 1550 3584 1831 3584 
Q 2591 3584 2966 3190 
Q 3341 2797 3341 1997 
z
" transform="scale(0.015625)"/>
       <path id="DejaVuSans-6c" d="M 603 4863 
L 1178 4863 
L 1178 0 
L 603 0 
L 603 4863 
z
" transform="scale(0.015625)"/>
      </defs>
      <use xlink:href="#DejaVuSans-52"/>
      <use xlink:href="#DejaVuSans-65" transform="translate(64.982422 0)"/>
      <use xlink:href="#DejaVuSans-63" transform="translate(126.505859 0)"/>
      <use xlink:href="#DejaVuSans-61" transform="translate(181.486328 0)"/>
      <use xlink:href="#DejaVuSans-6c" transform="translate(242.765625 0)"/>
      <use xlink:href="#DejaVuSans-6c" transform="translate(270.548828 0)"/>
     </g>
    </g>
   </g>
   <g id="matplotlib.axis_2">
    <g id="ytick_1">
     <g id="line2d_13">
      <path d="M 47.72 298.64884 
L 450 298.64884 
" clip-path="url(#pc2bffa1d39)" style="fill: none; stroke: #b0b0b0; stroke-width: 0.8; stroke-linecap: square"/>
     </g>
     <g id="line2d_14">
      <defs>
       <path id="m6524c8ab4a" d="M 0 0 
L -3.5 0 
" style="stroke: #000000; stroke-width: 0.8"/>
      </defs>
      <g>
       <use xlink:href="#m6524c8ab4a" x="47.72" y="298.64884" style="stroke: #000000; stroke-width: 0.8"/>
      </g>
     </g>
     <g id="text_8">
      <!-- 0.0 -->
      <g transform="translate(24.816875 302.448059) scale(0.1 -0.1)">
       <use xlink:href="#DejaVuSans-30"/>
       <use xlink:href="#DejaVuSans-2e" transform="translate(63.623047 0)"/>
       <use xlink:href="#DejaVuSans-30" transform="translate(95.410156 0)"/>
      </g>
     </g>
    </g>
    <g id="ytick_2">
     <g id="line2d_15">
      <path d="M 47.72 246.811072 
L 450 246.811072 
" clip-path="url(#pc2bffa1d39)" style="fill: none; stroke: #b0b0b0; stroke-width: 0.8; stroke-linecap: square"/>
     </g>
     <g id="line2d_16">
      <g>
       <use xlink:href="#m6524c8ab4a" x="47.72" y="246.811072" style="stroke: #000000; stroke-width: 0.8"/>
      </g>
     </g>
     <g id="text_9">
      <!-- 0.2 -->
      <g transform="translate(24.816875 250.610291) scale(0.1 -0.1)">
       <use xlink:href="#DejaVuSans-30"/>
       <use xlink:href="#DejaVuSans-2e" transform="translate(63.623047 0)"/>
       <use xlink:href="#DejaVuSans-32" transform="translate(95.410156 0)"/>
      </g>
     </g>
    </g>
    <g id="ytick_3">
     <g id="line2d_17">
      <path d="M 47.72 194.973304 
L 450 194.973304 
" clip-path="url(#pc2bffa1d39)" style="fill: none; stroke: #b0b0b0; stroke-width: 0.8; stroke-linecap: square"/>
     </g>
     <g id="line2d_18">
      <g>
       <use xlink:href="#m6524c8ab4a" x="47.72" y="194.973304" style="stroke: #000000; stroke-width: 0.8"/>
      </g>
     </g>
     <g id="text_10">
      <!-- 0.4 -->
      <g transform="translate(24.816875 198.772523) scale(0.1 -0.1)">
       <use xlink:href="#DejaVuSans-30"/>
       <use xlink:href="#DejaVuSans-2e" transform="translate(63.623047 0)"/>
       <use xlink:href="#DejaVuSans-34" transform="translate(95.410156 0)"/>
      </g>
     </g>
    </g>
    <g id="ytick_4">
     <g id="line2d_19">
      <path d="M 47.72 143.135536 
L 450 143.135536 
" clip-path="url(#pc2bffa1d39)" style="fill: none; stroke: #b0b0b0; stroke-width: 0.8; stroke-linecap: square"/>
     </g>
     <g id="line2d_20">
      <g>
       <use xlink:href="#m6524c8ab4a" x="47.72" y="143.135536" style="stroke: #000000; stroke-width: 0.8"/>
      </g>
     </g>
     <g id="text_11">
      <!-- 0.6 -->
      <g transform="translate(24.816875 146.934755) scale(0.1 -0.1)">
       <use xlink:href="#DejaVuSans-30"/>
       <use xlink:href="#DejaVuSans-2e" transform="translate(63.623047 0)"/>
       <use xlink:href="#DejaVuSans-36" transform="translate(95.410156 0)"/>
      </g>
     </g>
    </g>
    <g id="ytick_5">
     <g id="line2d_21">
      <path d="M 47.72 91.297768 
L 450 91.297768 
" clip-path="url(#pc2bffa1d39)" style="fill: none; stroke: #b0b0b0; stroke-width: 0.8; stroke-linecap: square"/>
     </g>
     <g id="line2d_22">
      <g>
       <use xlink:href="#m6524c8ab4a" x="47.72" y="91.297768" style="stroke: #000000; stroke-width: 0.8"/>
      </g>
     </g>
     <g id="text_12">
      <!-- 0.8 -->
      <g transform="translate(24.816875 95.096987) scale(0.1 -0.1)">
       <use xlink:href="#DejaVuSans-30"/>
       <use xlink:href="#DejaVuSans-2e" transform="translate(63.623047 0)"/>
       <use xlink:href="#DejaVuSans-38" transform="translate(95.410156 0)"/>
      </g>
     </g>
    </g>
    <g id="ytick_6">
     <g id="line2d_23">
      <path d="M 47.72 39.46 
L 450 39.46 
" clip-path="url(#pc2bffa1d39)" style="fill: none; stroke: #b0b0b0; stroke-width: 0.8; stroke-linecap: square"/>
     </g>
     <g id="line2d_24">
      <g>
       <use xlink:href="#m6524c8ab4a" x="47.72" y="39.46" style="stroke: #000000; stroke-width: 0.8"/>
      </g>
     </g>
     <g id="text_13">
      <!-- 1.0 -->
      <g transform="translate(24.816875 43.259219) scale(0.1 -0.1)">
       <use xlink:href="#DejaVuSans-31"/>
       <use xlink:href="#DejaVuSans-2e" transform="translate(63.623047 0)"/>
       <use xlink:href="#DejaVuSans-30" transform="translate(95.410156 0)"/>
      </g>
     </g>
    </g>
    <g id="text_14">
     <!-- Precision -->
     <g transform="translate(18.737188 187.567031) rotate(-90) scale(0.1 -0.1)">
      <defs>
       <path id="DejaVuSans-50" d="M 1259 4147 
L 1259 2394 
L 2053 2394 
Q 2494 2394 2734 2622 
Q 2975 2850 2975 3272 
Q 2975 3691 2734 3919 
Q 2494 4147 2053 4147 
L 1259 4147 
z
M 628 4666 
L 2053 4666 
Q 2838 4666 3239 4311 
Q 3641 3956 3641 3272 
Q 3641 2581 3239 2228 
Q 2838 1875 2053 1875 
L 1259 1875 
L 1259 0 
L 628 0 
L 628 4666 
z
" transform="scale(0.015625)"/>
       <path id="DejaVuSans-72" d="M 2631 2963 
Q 2534 3019 2420 3045 
Q 2306 3072 2169 3072 
Q 1681 3072 1420 2755 
Q 1159 2438 1159 1844 
L 1159 0 
L 581 0 
L 581 3500 
L 1159 3500 
L 1159 2956 
Q 1341 3275 1631 3429 
Q 1922 3584 2338 3584 
Q 2397 3584 2469 3576 
Q 2541 3569 2628 3553 
L 2631 2963 
z
" transform="scale(0.015625)"/>
       <path id="DejaVuSans-69" d="M 603 3500 
L 1178 3500 
L 1178 0 
L 603 0 
L 603 3500 
z
M 603 4863 
L 1178 4863 
L 1178 4134 
L 603 4134 
L 603 4863 
z
" transform="scale(0.015625)"/>
       <path id="DejaVuSans-73" d="M 2834 3397 
L 2834 2853 
Q 2591 2978 2328 3040 
Q 2066 3103 1784 3103 
Q 1356 3103 1142 2972 
Q 928 2841 928 2578 
Q 928 2378 1081 2264 
Q 1234 2150 1697 2047 
L 1894 2003 
Q 2506 1872 2764 1633 
Q 3022 1394 3022 966 
Q 3022 478 2636 193 
Q 2250 -91 1575 -91 
Q 1294 -91 989 -36 
Q 684 19 347 128 
L 347 722 
Q 666 556 975 473 
Q 1284 391 1588 391 
Q 1994 391 2212 530 
Q 2431 669 2431 922 
Q 2431 1156 2273 1281 
Q 2116 1406 1581 1522 
L 1381 1569 
Q 847 1681 609 1914 
Q 372 2147 372 2553 
Q 372 3047 722 3315 
Q 1072 3584 1716 3584 
Q 2034 3584 2315 3537 
Q 2597 3491 2834 3397 
z
" transform="scale(0.015625)"/>
       <path id="DejaVuSans-6f" d="M 1959 3097 
Q 1497 3097 1228 2736 
Q 959 2375 959 1747 
Q 959 1119 1226 758 
Q 1494 397 1959 397 
Q 2419 397 2687 759 
Q 2956 1122 2956 1747 
Q 2956 2369 2687 2733 
Q 2419 3097 1959 3097 
z
M 1959 3584 
Q 2709 3584 3137 3096 
Q 3566 2609 3566 1747 
Q 3566 888 3137 398 
Q 2709 -91 1959 -91 
Q 1206 -91 779 398 
Q 353 888 353 1747 
Q 353 2609 779 3096 
Q 1206 3584 1959 3584 
z
" transform="scale(0.015625)"/>
       <path id="DejaVuSans-6e" d="M 3513 2113 
L 3513 0 
L 2938 0 
L 2938 2094 
Q 2938 2591 2744 2837 
Q 2550 3084 2163 3084 
Q 1697 3084 1428 2787 
Q 1159 2491 1159 1978 
L 1159 0 
L 581 0 
L 581 3500 
L 1159 3500 
L 1159 2956 
Q 1366 3272 1645 3428 
Q 1925 3584 2291 3584 
Q 2894 3584 3203 3211 
Q 3513 2838 3513 2113 
z
" transform="scale(0.015625)"/>
      </defs>
      <use xlink:href="#DejaVuSans-50"/>
      <use xlink:href="#DejaVuSans-72" transform="translate(58.552734 0)"/>
      <use xlink:href="#DejaVuSans-65" transform="translate(97.416016 0)"/>
      <use xlink:href="#DejaVuSans-63" transform="translate(158.939453 0)"/>
      <use xlink:href="#DejaVuSans-69" transform="translate(213.919922 0)"/>
      <use xlink:href="#DejaVuSans-73" transform="translate(241.703125 0)"/>
      <use xlink:href="#DejaVuSans-69" transform="translate(293.802734 0)"/>
      <use xlink:href="#DejaVuSans-6f" transform="translate(321.585938 0)"/>
      <use xlink:href="#DejaVuSans-6e" transform="translate(382.767578 0)"/>
     </g>
    </g>
   </g>
   <g id="line2d_25">
    <path d="M 431.714545 291.059694 
L 431.692826 291.06 
L 431.605949 291.020067 
L 431.258441 290.919166 
L 431.258441 290.915984 
L 431.149844 290.882682 
L 430.780617 290.780365 
L 430.780617 290.77917 
L 430.67202 290.765422 
L 429.390583 290.682465 
L 429.390583 290.681147 
L 429.281987 290.662118 
L 427.39241 290.591741 
L 427.39241 290.591259 
L 427.283814 290.58049 
L 426.480201 290.490834 
L 426.480201 290.486748 
L 426.458482 290.487069 
L 426.371605 290.468626 
L 425.893781 290.368813 
L 425.893781 290.367999 
L 425.785184 290.293767 
L 425.133606 290.206747 
L 425.133606 290.197275 
L 425.111887 290.197652 
L 425.02501 290.185527 
L 424.395151 290.089526 
L 424.395151 290.088756 
L 424.286555 290.077385 
L 423.613257 289.98666 
L 423.613257 289.981822 
L 423.504661 289.972701 
L 422.679329 289.881147 
L 422.679329 289.880931 
L 422.570732 289.869512 
L 421.832277 289.778136 
L 421.832277 289.775949 
L 421.723681 289.757514 
L 420.941787 289.675964 
L 420.941787 289.66525 
L 420.920068 289.665457 
L 420.833191 289.64106 
L 419.66035 289.576381 
L 419.66035 289.558657 
L 419.616911 289.559069 
L 419.551754 289.549768 
L 418.726421 289.460636 
L 418.726421 289.459131 
L 418.617825 289.453609 
L 417.27123 289.381987 
L 417.27123 289.37635 
L 417.162634 289.364944 
L 415.664004 289.293493 
L 415.664004 289.292004 
L 415.577127 289.292713 
L 415.555408 289.290314 
L 414.013339 289.220207 
L 414.013339 289.218965 
L 413.926462 289.214422 
L 413.904743 289.214453 
L 412.145482 289.151511 
L 412.145482 289.149283 
L 412.058605 289.138588 
L 412.036886 289.138944 
L 410.516537 289.072486 
L 410.516537 289.068045 
L 410.494817 289.068604 
L 410.40794 289.06186 
L 408.974468 288.989944 
L 408.974468 288.989169 
L 408.887591 288.978767 
L 408.865872 288.978808 
L 407.823347 288.900735 
L 407.823347 288.895981 
L 407.801628 288.896041 
L 407.714751 288.883997 
L 407.063172 288.790889 
L 407.063172 288.79077 
L 406.954576 288.780164 
L 406.433314 288.683902 
L 406.433314 288.683535 
L 406.324717 288.663519 
L 405.868613 288.568168 
L 405.868613 288.565236 
L 405.760016 288.5457 
L 405.238754 288.451916 
L 405.238754 288.449476 
L 405.130157 288.421563 
L 404.717491 288.326059 
L 404.717491 288.321892 
L 404.608895 288.30496 
L 404.326544 288.212519 
L 404.326544 288.202096 
L 404.217948 288.190403 
L 403.414335 288.106612 
L 403.414335 288.103105 
L 403.305739 288.065365 
L 402.936511 287.965603 
L 402.936511 287.965319 
L 402.827915 287.943105 
L 402.393529 287.847126 
L 402.393529 287.844625 
L 402.284933 287.825625 
L 401.959144 287.739011 
L 401.959144 287.724534 
L 401.850547 287.677092 
L 401.394443 287.583241 
L 401.394443 287.580211 
L 401.285846 287.550463 
L 400.808022 287.455562 
L 400.808022 287.453774 
L 400.699426 287.409284 
L 400.308479 287.322395 
L 400.308479 287.310677 
L 400.199883 287.278004 
L 399.656901 287.183999 
L 399.656901 287.183735 
L 399.591743 287.149385 
L 399.548305 287.15065 
L 399.0922 287.057313 
L 399.0922 287.05312 
L 398.983604 287.019481 
L 398.679534 286.935348 
L 398.679534 286.918007 
L 398.570937 286.879164 
L 398.049675 286.791627 
L 398.049675 286.785628 
L 397.962798 286.77501 
L 398.027956 286.786049 
L 397.941079 286.775431 
L 397.745605 286.682783 
L 397.745605 286.670944 
L 397.637009 286.616288 
L 397.159185 286.520976 
L 397.159185 286.520865 
L 397.050588 286.469598 
L 396.507607 286.377709 
L 396.507607 286.37748 
L 396.39901 286.344953 
L 396.073221 286.246824 
L 396.073221 286.24534 
L 395.964625 286.196996 
L 395.465082 286.108538 
L 395.465082 286.103776 
L 395.356485 286.061724 
L 395.008977 285.966356 
L 395.008977 285.962545 
L 394.900381 285.935513 
L 394.422557 285.8434 
L 394.422557 285.841015 
L 394.31396 285.808449 
L 393.792698 285.719297 
L 393.792698 285.715664 
L 393.684101 285.682996 
L 393.1194 285.594793 
L 393.1194 285.591955 
L 393.010804 285.538273 
L 392.576418 285.446217 
L 392.576418 285.443623 
L 392.467822 285.431264 
L 392.055156 285.337096 
L 392.055156 285.335092 
L 391.94656 285.305832 
L 391.533893 285.21619 
L 391.533893 285.210707 
L 391.425297 285.149769 
L 390.990912 285.057234 
L 390.990912 285.055661 
L 390.882315 285.027548 
L 390.491368 284.934999 
L 390.491368 284.931064 
L 390.382772 284.877012 
L 389.904948 284.795374 
L 389.904948 284.783995 
L 389.796352 284.731082 
L 389.383686 284.637234 
L 389.383686 284.635758 
L 389.275089 284.60001 
L 388.775546 284.51756 
L 388.775546 284.509364 
L 388.66695 284.480784 
L 388.167406 284.392666 
L 388.167406 284.390339 
L 388.05881 284.344801 
L 387.363793 284.26523 
L 387.363793 284.262802 
L 387.255197 284.214926 
L 386.842531 284.125472 
L 386.842531 284.121228 
L 386.733934 284.084977 
L 386.256111 283.999818 
L 386.256111 283.994313 
L 386.147514 283.959911 
L 385.582813 283.875285 
L 385.582813 283.873167 
L 385.474217 283.837618 
L 384.931235 283.752895 
L 384.931235 283.750154 
L 384.909516 283.750994 
L 384.822639 283.717 
L 384.431692 283.624811 
L 384.431692 283.623088 
L 384.323095 283.585685 
L 383.606359 283.508654 
L 383.606359 283.506416 
L 383.497763 283.454166 
L 382.933062 283.368682 
L 382.933062 283.368435 
L 382.824466 283.337172 
L 382.346642 283.252582 
L 382.346642 283.247683 
L 382.238045 283.207424 
L 381.868818 283.116073 
L 381.868818 283.113192 
L 381.760221 283.06387 
L 381.282397 282.982483 
L 381.282397 282.974847 
L 381.173801 282.934355 
L 380.674258 282.84822 
L 380.674258 282.846558 
L 380.587381 282.827285 
L 380.565661 282.828111 
L 380.218153 282.736679 
L 380.218153 282.733302 
L 380.109557 282.721631 
L 379.653452 282.631303 
L 379.653452 282.630755 
L 379.631733 282.631521 
L 379.544856 282.597214 
L 379.284224 282.505219 
L 379.284224 282.498524 
L 379.175628 282.471486 
L 378.8064 282.378151 
L 378.697804 282.370816 
L 378.21998 282.286627 
L 378.21998 282.282961 
L 378.154822 282.27933 
L 378.176542 282.284232 
L 378.111384 282.281321 
L 377.611841 282.196319 
L 377.611841 282.194645 
L 377.590121 282.194918 
L 377.503244 282.178808 
L 376.960262 282.094859 
L 376.960262 282.09449 
L 376.851666 282.061793 
L 376.504158 281.986909 
L 376.504158 281.967931 
L 376.395561 281.938182 
L 375.917737 281.8545 
L 375.917737 281.851068 
L 375.83086 281.820388 
L 375.809141 281.821184 
L 375.24444 281.741038 
L 375.24444 281.738636 
L 375.135844 281.725886 
L 374.592862 281.643668 
L 374.592862 281.64249 
L 374.505985 281.613607 
L 374.484265 281.613703 
L 374.006441 281.528302 
L 374.006441 281.527106 
L 373.897845 281.475303 
L 373.46346 281.387225 
L 373.46346 281.386737 
L 373.354863 281.32944 
L 372.985636 281.238851 
L 372.985636 281.236286 
L 372.877039 281.216511 
L 372.57297 281.126686 
L 372.57297 281.121398 
L 372.464373 281.068902 
L 372.182023 280.975421 
L 372.182023 280.97277 
L 372.073426 280.931126 
L 371.877953 280.83703 
L 371.877953 280.830422 
L 371.769357 280.797883 
L 371.595602 280.716086 
L 371.595602 280.696134 
L 371.487006 280.633159 
L 371.226375 280.538175 
L 371.226375 280.536194 
L 371.117778 280.455424 
L 370.944024 280.356192 
L 370.944024 280.353157 
L 370.835428 280.30267 
L 370.661674 280.212803 
L 370.661674 280.201109 
L 370.639954 280.202237 
L 370.553077 280.151653 
L 370.357604 280.059547 
L 370.357604 280.051457 
L 370.335885 280.052022 
L 370.249008 279.932645 
L 370.075253 279.842705 
L 370.075253 279.831295 
L 369.966657 279.779695 
L 369.727745 279.682546 
L 369.727745 279.682248 
L 369.619149 279.644876 
L 369.467114 279.550514 
L 369.467114 279.542453 
L 369.358517 279.452059 
L 369.315079 279.415337 
L 369.315079 279.343323 
L 369.206483 279.246751 
L 369.054448 279.153824 
L 369.054448 279.144467 
L 368.945851 279.018269 
L 368.706939 278.92138 
L 368.706939 278.921273 
L 368.68522 278.922473 
L 368.598343 278.803497 
L 368.424589 278.704075 
L 368.424589 278.702752 
L 368.315992 278.63614 
L 368.120519 278.581621 
L 368.120519 278.536843 
L 368.011923 278.081936 
L 367.968484 278.003129 
L 367.968484 277.973396 
L 367.859888 276.804046 
L 367.838168 276.805486 
L 367.838168 276.694181 
L 367.729572 262.222697 
L 367.707853 262.224951 
L 367.707853 262.113327 
L 367.599256 257.030206 
L 367.555818 256.982719 
L 367.555818 256.923779 
L 367.447222 254.603367 
L 367.425502 254.606001 
L 367.425502 254.494088 
L 367.316906 252.966774 
L 367.295187 252.969487 
L 367.295187 252.857788 
L 367.18659 251.635477 
L 367.121432 251.546452 
L 367.121432 251.532247 
L 367.012836 250.627422 
L 366.947678 250.525876 
L 366.947678 250.523941 
L 366.839082 249.713088 
L 366.817363 249.715954 
L 366.817363 249.604309 
L 366.708766 247.878191 
L 366.687047 247.88114 
L 366.687047 247.769561 
L 366.578451 245.595825 
L 366.556731 245.598874 
L 366.556731 245.487218 
L 366.448135 243.836891 
L 366.426416 243.840015 
L 366.426416 243.728346 
L 366.317819 242.421721 
L 366.2961 242.424906 
L 366.2961 242.312652 
L 366.187504 240.352546 
L 366.144065 240.264069 
L 366.144065 240.246933 
L 366.035469 239.048437 
L 366.01375 239.051759 
L 366.01375 238.939443 
L 365.905153 237.32045 
L 365.883434 237.323841 
L 365.883434 237.212244 
L 365.774838 236.57269 
L 365.753118 236.576111 
L 365.753118 236.463885 
L 365.644522 235.621921 
L 365.601083 235.52313 
L 365.601083 235.516442 
L 365.492487 234.156808 
L 365.470768 234.160322 
L 365.470768 234.048411 
L 365.362171 233.337498 
L 365.297014 233.259663 
L 365.297014 233.235712 
L 365.188417 232.751345 
L 365.166698 232.754913 
L 365.166698 232.64283 
L 365.058102 231.557848 
L 365.014663 231.452637 
L 364.906067 230.496507 
L 364.862628 230.445164 
L 364.862628 230.391645 
L 364.754032 229.434868 
L 364.710593 229.373651 
L 364.710593 229.330543 
L 364.601997 228.170228 
L 364.580278 228.17396 
L 364.580278 228.062268 
L 364.471681 227.055412 
L 364.449962 227.059183 
L 364.449962 226.946763 
L 364.341366 225.450561 
L 364.319646 225.454385 
L 364.319646 225.342852 
L 364.21105 224.375412 
L 364.124173 224.283748 
L 364.124173 224.279084 
L 364.015577 223.52886 
L 363.993857 223.532749 
L 363.993857 223.419924 
L 363.885261 222.581586 
L 363.863542 222.585504 
L 363.863542 222.473028 
L 363.754945 221.364609 
L 363.711507 221.283333 
L 363.711507 221.25974 
L 363.602911 220.004846 
L 363.581191 220.008844 
L 363.581191 219.897231 
L 363.472595 218.885884 
L 363.407437 218.795701 
L 363.407437 218.786716 
L 363.298841 218.063335 
L 363.277121 218.067392 
L 363.277121 217.955583 
L 363.168525 217.073994 
L 363.103367 216.981041 
L 363.103367 216.973516 
L 362.994771 216.080855 
L 362.973052 216.08497 
L 362.973052 215.973254 
L 362.864455 214.911473 
L 362.842736 214.91562 
L 362.842736 214.802649 
L 362.821017 214.804815 
L 362.73414 214.205717 
L 362.668982 214.133565 
L 362.668982 214.105309 
L 362.560385 212.544745 
L 362.516947 212.486081 
L 362.516947 212.441998 
L 362.408351 211.563381 
L 362.364912 211.503195 
L 362.364912 211.460227 
L 362.256316 210.995162 
L 362.212877 210.914479 
L 362.212877 210.890519 
L 362.104281 210.067204 
L 362.060842 210.053547 
L 362.060842 209.964592 
L 361.952246 208.817805 
L 361.908807 208.782989 
L 361.908807 208.714326 
L 361.800211 207.427711 
L 361.756772 207.408097 
L 361.756772 207.323103 
L 361.648176 206.394611 
L 361.626457 206.398976 
L 361.626457 206.287878 
L 361.51786 205.57126 
L 361.496141 205.575644 
L 361.496141 205.462503 
L 361.474422 205.464428 
L 361.387545 205.17563 
L 361.322387 205.099502 
L 361.322387 205.077147 
L 361.278948 205.080974 
L 361.213791 204.639801 
L 361.192071 204.644209 
L 361.192071 204.531187 
L 361.083475 203.869426 
L 361.061756 203.873851 
L 361.061756 203.761474 
L 360.953159 202.240161 
L 360.93144 202.24462 
L 360.93144 202.133586 
L 360.822844 201.053087 
L 360.714247 200.9671 
L 360.714247 200.964387 
L 360.605651 200.531639 
L 360.583932 200.536135 
L 360.583932 200.423736 
L 360.475335 199.721913 
L 360.431897 199.664055 
L 360.431897 199.619417 
L 360.323301 198.760666 
L 360.258143 198.717413 
L 360.258143 198.66335 
L 360.149546 197.853594 
L 360.106108 197.793181 
L 360.106108 197.749689 
L 359.997511 196.646219 
L 359.975792 196.65079 
L 359.975792 196.537973 
L 359.867196 195.959967 
L 359.823757 195.91197 
L 359.823757 195.857757 
L 359.715161 194.762813 
L 359.693442 194.767416 
L 359.693442 194.656451 
L 359.671722 194.65797 
L 359.584845 194.267492 
L 359.563126 194.272105 
L 359.563126 194.160029 
L 359.45453 193.716697 
L 359.411091 193.666169 
L 359.411091 193.612631 
L 359.302495 192.604906 
L 359.259056 192.514496 
L 359.259056 192.501619 
L 359.15046 191.92914 
L 359.085302 191.907272 
L 359.085302 191.832293 
L 358.976706 189.959865 
L 358.911548 189.960386 
L 358.911548 189.862288 
L 358.802952 188.932862 
L 358.781232 188.937556 
L 358.781232 188.827203 
L 358.672636 187.682022 
L 358.629197 187.627945 
L 358.629197 187.578508 
L 358.520601 186.604054 
L 358.455443 186.593045 
L 358.455443 186.50663 
L 358.346847 185.939837 
L 358.303408 185.865491 
L 358.303408 185.836311 
L 358.194812 184.806812 
L 358.173093 184.811558 
L 358.173093 184.699945 
L 358.064496 183.796394 
L 357.999339 183.734921 
L 357.999339 183.697012 
L 357.890742 182.941996 
L 357.869023 182.946763 
L 357.869023 182.835193 
L 357.760427 181.825578 
L 357.738707 181.830355 
L 357.738707 181.720497 
L 357.630111 181.045145 
L 357.586672 181.054714 
L 357.586672 180.943334 
L 357.478076 180.11305 
L 357.434637 180.08627 
L 357.434637 180.009424 
L 357.326041 179.390499 
L 357.260883 179.314831 
L 357.260883 179.294342 
L 357.152287 178.368206 
L 357.130568 178.373015 
L 357.130568 178.260483 
L 357.043691 177.865308 
L 357.021971 177.870122 
L 356.978533 177.816711 
L 356.978533 177.766233 
L 356.869936 177.270481 
L 356.804779 177.246728 
L 356.804779 177.174485 
L 356.696182 176.591789 
L 356.674463 176.596615 
L 356.674463 176.484853 
L 356.565867 175.842808 
L 356.500709 175.800733 
L 356.500709 175.744113 
L 356.392112 175.027451 
L 356.370393 175.032287 
L 356.370393 174.921939 
L 356.261797 174.52056 
L 356.240078 174.5254 
L 356.240078 174.414095 
L 356.131481 174.130066 
L 356.088043 174.130796 
L 356.088043 174.027696 
L 355.979446 173.088963 
L 355.914288 173.048817 
L 355.914288 172.994075 
L 355.805692 171.470644 
L 355.762254 171.419525 
L 355.762254 171.36801 
L 355.653657 170.78976 
L 355.631938 170.794618 
L 355.631938 170.681008 
L 355.610219 170.681128 
L 355.523342 169.79391 
L 355.479903 169.741128 
L 355.479903 169.693007 
L 355.393026 169.543748 
L 355.371307 169.543785 
L 355.306149 169.485933 
L 355.306149 169.447263 
L 355.197553 168.981382 
L 355.154114 168.986243 
L 355.154114 168.878963 
L 355.045518 168.206565 
L 355.023798 168.211434 
L 355.023798 168.097877 
L 354.915202 167.800233 
L 354.871763 167.740414 
L 354.871763 167.700632 
L 354.763167 167.395864 
L 354.719729 167.335583 
L 354.719729 167.295533 
L 354.611132 166.412276 
L 354.567694 166.355988 
L 354.567694 166.310232 
L 354.459097 165.500386 
L 354.415659 165.458615 
L 354.415659 165.396736 
L 354.307062 164.008185 
L 354.285343 164.013059 
L 354.285343 163.902317 
L 354.176747 163.157034 
L 354.08987 163.091063 
L 354.08987 163.064332 
L 353.981273 162.670332 
L 353.937835 162.583167 
L 353.937835 162.567 
L 353.829238 161.952437 
L 353.764081 161.934414 
L 353.764081 161.858172 
L 353.655484 161.571251 
L 353.633765 161.576127 
L 353.633765 161.466561 
L 353.525169 160.752294 
L 353.503449 160.757169 
L 353.503449 160.646239 
L 353.394853 159.933959 
L 353.351414 159.921259 
L 353.351414 159.831402 
L 353.242818 159.455613 
L 353.19938 159.380522 
L 353.19938 159.35222 
L 353.090783 158.292493 
L 353.069064 158.297361 
L 353.069064 158.188022 
L 352.982187 157.605961 
L 352.960468 157.610827 
L 352.917029 157.597321 
L 352.917029 157.510105 
L 352.808433 156.254572 
L 352.743275 156.18023 
L 352.743275 156.1565 
L 352.634678 155.447169 
L 352.612959 155.452025 
L 352.612959 155.344029 
L 352.504363 154.831905 
L 352.460924 154.787144 
L 352.460924 154.732635 
L 352.352328 153.811572 
L 352.265451 153.757255 
L 352.265451 153.720372 
L 352.156855 153.201486 
L 352.135135 153.206331 
L 352.135135 153.094734 
L 352.026539 152.677073 
L 352.00482 152.681915 
L 352.00482 152.56946 
L 351.896223 151.548305 
L 351.852785 151.557972 
L 351.852785 151.450069 
L 351.744188 150.893906 
L 351.679031 150.799468 
L 351.570434 150.399183 
L 351.505276 150.342685 
L 351.505276 150.303941 
L 351.39668 149.365884 
L 351.374961 149.370702 
L 351.374961 149.259378 
L 351.266364 148.300539 
L 351.222926 148.243721 
L 351.222926 148.197183 
L 351.114329 147.351619 
L 351.09261 147.356417 
L 351.09261 147.248693 
L 350.984014 146.975628 
L 350.962295 146.980423 
L 350.962295 146.872112 
L 350.853698 145.90736 
L 350.831979 145.912143 
L 350.831979 145.802251 
L 350.723383 144.836866 
L 350.636506 144.751429 
L 350.636506 144.744456 
L 350.527909 143.417559 
L 350.462751 143.360815 
L 350.462751 143.31818 
L 350.354155 143.064232 
L 350.310716 142.980938 
L 350.310716 142.966652 
L 350.20212 142.582116 
L 350.158682 142.505377 
L 350.158682 142.483804 
L 350.050085 141.668724 
L 350.028366 141.673457 
L 350.028366 141.564331 
L 349.91977 141.069355 
L 349.89805 141.074081 
L 349.89805 140.964068 
L 349.789454 139.288745 
L 349.767735 139.293443 
L 349.767735 139.180877 
L 349.659138 138.320784 
L 349.59398 138.289255 
L 349.59398 138.228444 
L 349.485384 137.641142 
L 349.441946 137.612163 
L 349.441946 137.543131 
L 349.333349 136.648053 
L 349.31163 136.65271 
L 349.31163 136.543967 
L 349.203034 135.746918 
L 349.181314 135.751559 
L 349.181314 135.641552 
L 349.072718 134.739473 
L 348.985841 134.678391 
L 348.985841 134.646538 
L 348.877245 133.732359 
L 348.855525 133.736965 
L 348.855525 133.624089 
L 348.746929 132.966526 
L 348.72521 132.971118 
L 348.72521 132.865285 
L 348.616613 132.061278 
L 348.594894 132.065853 
L 348.594894 131.95881 
L 348.508017 131.514378 
L 348.486298 131.518942 
L 348.442859 131.503208 
L 348.442859 131.420278 
L 348.334263 131.127175 
L 348.290824 131.111298 
L 348.290824 131.027934 
L 348.182228 130.599064 
L 348.11707 130.520402 
L 348.11707 130.503608 
L 348.008474 129.58037 
L 347.943316 129.525972 
L 347.943316 129.483456 
L 347.83472 128.762777 
L 347.791281 128.720293 
L 347.791281 128.660163 
L 347.682685 128.009718 
L 347.617527 127.92786 
L 347.617527 127.910513 
L 347.50893 127.122337 
L 347.465492 127.061194 
L 347.465492 127.026124 
L 347.356896 126.228965 
L 347.270018 126.140464 
L 347.183141 125.544284 
L 347.161422 125.548725 
L 347.096264 125.463752 
L 347.096264 125.45481 
L 346.987668 124.614168 
L 346.92251 124.528004 
L 346.92251 124.51896 
L 346.813914 124.151209 
L 346.770475 124.050917 
L 346.661879 123.433659 
L 346.61844 123.36908 
L 346.61844 123.332374 
L 346.509844 122.75562 
L 346.466405 122.671896 
L 346.466405 122.653389 
L 346.357809 122.155405 
L 346.314371 122.117563 
L 346.314371 122.052326 
L 346.205774 121.691006 
L 346.118897 121.633458 
L 346.118897 121.595955 
L 346.010301 120.769547 
L 345.988581 120.773875 
L 345.988581 120.66965 
L 345.879985 120.101455 
L 345.858266 120.105766 
L 345.858266 120.000707 
L 345.771389 119.423403 
L 345.749669 119.427695 
L 345.72795 119.431989 
L 345.72795 119.326086 
L 345.619354 118.806373 
L 345.575915 118.785842 
L 345.575915 118.708236 
L 345.467319 117.881167 
L 345.402161 117.786066 
L 345.293565 117.404113 
L 345.250126 117.353431 
L 345.250126 117.304101 
L 345.14153 117.097991 
L 345.054653 117.005998 
L 344.946056 116.669709 
L 344.880899 116.572863 
L 344.794022 116.070202 
L 344.772302 116.074406 
L 344.707144 115.986758 
L 344.707144 115.976725 
L 344.598548 115.069864 
L 344.53339 115.001253 
L 344.53339 114.970807 
L 344.424794 114.676429 
L 344.381355 114.654192 
L 344.381355 114.57263 
L 344.272759 114.081954 
L 344.185882 113.995894 
L 344.185882 113.985622 
L 344.099005 113.745012 
L 344.077286 113.749151 
L 344.033847 113.716209 
L 344.033847 113.654341 
L 343.925251 113.04358 
L 343.860093 112.983191 
L 343.860093 112.951997 
L 343.773216 112.237521 
L 343.751497 112.241614 
L 343.729777 112.245707 
L 343.729777 112.14081 
L 343.621181 111.582112 
L 343.556023 111.520355 
L 343.556023 111.488633 
L 343.447427 111.116796 
L 343.403988 111.071785 
L 343.403988 111.018626 
L 343.295392 110.484168 
L 343.251953 110.438729 
L 343.251953 110.385181 
L 343.143357 109.997331 
L 343.121638 110.001355 
L 343.121638 109.89368 
L 343.013041 109.286724 
L 342.947883 109.244467 
L 342.947883 109.190178 
L 342.839287 108.807388 
L 342.795849 108.771709 
L 342.795849 108.706196 
L 342.687252 108.211267 
L 342.600375 108.117215 
L 342.491779 107.662852 
L 342.404902 107.590153 
L 342.404902 107.568016 
L 342.296305 107.31056 
L 342.187709 107.28582 
L 342.187709 107.219132 
L 342.079113 107.060718 
L 341.948797 106.99512 
L 341.948797 106.972809 
L 341.840201 106.6011 
L 341.796762 106.519249 
L 341.796762 106.496815 
L 341.688166 106.010127 
L 341.666446 106.014024 
L 341.666446 105.901154 
L 341.55785 105.490428 
L 341.536131 105.494306 
L 341.536131 105.392132 
L 341.427534 104.978834 
L 341.362377 104.933335 
L 341.362377 104.887645 
L 341.25378 104.563507 
L 341.166903 104.498576 
L 341.166903 104.475615 
L 341.058307 104.218828 
L 341.014868 104.2265 
L 341.014868 104.122784 
L 340.927991 103.884083 
L 340.906272 103.887907 
L 340.862833 103.872428 
L 340.862833 103.791431 
L 340.754237 103.194961 
L 340.710799 103.097632 
L 340.602202 102.929763 
L 340.537044 102.906058 
L 340.537044 102.835862 
L 340.450167 102.651821 
L 340.428448 102.655603 
L 340.385009 102.592759 
L 340.385009 102.557535 
L 340.276413 102.364782 
L 340.232975 102.313449 
L 340.232975 102.266321 
L 340.167817 102.136093 
L 340.124378 102.143623 
L 340.015782 102.103405 
L 340.015782 102.056138 
L 339.907185 101.826388 
L 339.842028 101.754649 
L 339.842028 101.730919 
L 339.733431 101.523926 
L 339.603116 101.46308 
L 339.603116 101.439259 
L 339.516239 101.132044 
L 339.494519 101.135776 
L 339.4728 101.139509 
L 339.4728 101.031867 
L 339.364204 100.678774 
L 339.255607 100.625229 
L 339.255607 100.589146 
L 339.147011 100.427066 
L 339.081853 100.329628 
L 338.973257 100.263618 
L 338.929818 100.23477 
L 338.929818 100.162219 
L 338.821222 99.695588 
L 338.712626 99.604493 
L 338.604029 99.305796 
L 338.538871 99.243471 
L 338.538871 99.206787 
L 338.430275 98.845164 
L 338.386836 98.791041 
L 338.386836 98.741876 
L 338.27824 98.538518 
L 338.213082 98.463117 
L 338.213082 98.438441 
L 338.104486 97.800335 
L 338.039328 97.77388 
L 338.039328 97.699275 
L 337.930732 97.617724 
L 337.843855 97.544908 
L 337.843855 97.519971 
L 337.735258 97.075422 
L 337.713539 97.079004 
L 337.713539 96.978708 
L 337.604943 96.518722 
L 337.561504 96.488012 
L 337.561504 96.424936 
L 337.452908 96.151989 
L 337.366031 96.077505 
L 337.366031 96.064832 
L 337.257434 95.688816 
L 337.192277 95.597525 
L 337.08368 95.296067 
L 337.018522 95.229861 
L 337.018522 95.204269 
L 336.909926 95.029617 
L 336.80133 94.957289 
L 336.80133 94.944449 
L 336.714453 94.765615 
L 336.692733 94.769106 
L 336.671014 94.772597 
L 336.671014 94.669596 
L 336.562418 94.506492 
L 336.49726 94.41361 
L 336.388664 94.27578 
L 336.323506 94.182573 
L 336.214909 93.914341 
L 336.149752 93.885705 
L 336.149752 93.820656 
L 336.041155 93.759798 
L 335.845682 93.686575 
L 335.780524 93.644728 
L 335.737085 93.651629 
L 335.541612 93.591241 
L 335.541612 93.578167 
L 335.454735 93.578894 
L 335.433016 93.464567 
L 335.324419 93.403191 
L 335.324419 93.376973 
L 335.215823 93.328608 
L 334.955192 93.264863 
L 334.868315 93.199736 
L 334.846595 93.203178 
L 334.564245 93.142588 
L 334.564245 93.103047 
L 334.455648 93.107068 
L 334.347052 93.058309 
L 334.347052 93.018703 
L 334.260175 92.992836 
L 334.238456 92.996275 
L 334.086421 92.914573 
L 333.977824 92.839089 
L 333.847509 92.806698 
L 333.847509 92.75366 
L 333.760632 92.701046 
L 333.738912 92.704478 
L 333.565158 92.652239 
L 333.565158 92.625655 
L 333.456562 92.536384 
L 333.282808 92.45724 
L 333.174211 92.36766 
L 333.043896 92.294713 
L 333.043896 92.28135 
L 332.957019 92.228181 
L 332.935299 92.2316 
L 332.63123 92.212572 
L 332.63123 92.172383 
L 332.544352 92.038548 
L 332.522633 92.041964 
L 332.262002 91.975496 
L 332.175125 91.908458 
L 332.153406 91.911872 
L 331.892774 91.8451 
L 331.827617 91.814895 
L 331.784178 91.821723 
L 331.610424 91.741057 
L 331.545266 91.710764 
L 331.501827 91.717589 
L 331.284635 91.643511 
L 331.197758 91.521689 
L 331.176038 91.525097 
L 330.958846 91.464209 
L 330.958846 91.450632 
L 330.850249 91.386153 
L 330.611337 91.34201 
L 330.611337 91.314786 
L 330.611337 91.301172 
L 330.502741 91.318198 
L 330.502741 91.304578 
L 330.155233 91.25002 
L 330.155233 91.236373 
L 330.046636 91.253413 
L 329.851163 91.18847 
L 329.851163 91.1748 
L 329.742566 91.0687 
L 329.35162 91.034076 
L 329.35162 91.020359 
L 329.286462 90.920766 
L 329.243023 90.927572 
L 329.04755 90.889489 
L 329.04755 90.848228 
L 328.938953 90.727556 
L 328.700041 90.654611 
L 328.613164 90.626785 
L 328.591445 90.630181 
L 328.482849 90.536613 
L 328.395972 90.494856 
L 328.374252 90.498249 
L 328.265656 90.40443 
L 328.200498 90.373018 
L 328.15706 90.379797 
L 327.918148 90.306071 
L 327.831271 90.236256 
L 327.809551 90.239643 
L 327.700955 90.145279 
L 327.592359 90.036812 
L 327.483762 89.95606 
L 327.483762 89.942102 
L 327.396885 89.913716 
L 327.375166 89.917093 
L 327.24485 89.85349 
L 327.24485 89.825518 
L 327.136254 89.674362 
L 326.94078 89.592464 
L 326.853903 89.549762 
L 326.832184 89.553127 
L 326.614991 89.502445 
L 326.614991 89.488379 
L 326.528114 89.473698 
L 326.506395 89.477063 
L 326.397799 89.395304 
L 326.289202 89.355729 
L 325.985133 89.318133 
L 325.985133 89.304008 
L 325.876536 89.207733 
L 325.529028 89.162405 
L 325.442151 89.090786 
L 325.420431 89.094145 
L 324.87745 89.078812 
L 324.87745 89.050374 
L 324.768853 89.067203 
L 324.399626 89.0248 
L 324.399626 89.010549 
L 324.291029 89.027398 
L 323.639451 89.057319 
L 323.639451 89.028739 
L 323.530855 88.988445 
L 323.009592 88.969374 
L 322.944435 88.93651 
L 322.900996 88.943279 
L 322.423172 88.931655 
L 322.423172 88.917281 
L 322.379734 88.880923 
L 322.314576 88.891091 
L 320.620473 89.055768 
L 320.533595 89.04053 
L 320.511876 89.043952 
L 320.120929 89.00422 
L 320.09921 88.964154 
L 320.012333 88.977851 
L 319.599667 88.941343 
L 319.49107 88.871243 
L 318.948089 88.855038 
L 318.861212 88.825012 
L 318.839492 88.828445 
L 318.491984 88.781161 
L 318.426826 88.762225 
L 318.383388 88.769096 
L 317.905564 88.742258 
L 317.818687 88.682699 
L 317.796967 88.686138 
L 317.42774 88.64184 
L 317.40602 88.615878 
L 317.319143 88.629648 
L 316.993354 88.592999 
L 316.993354 88.578267 
L 316.884758 88.536531 
L 316.53725 88.48834 
L 316.493811 88.465681 
L 316.428653 88.47602 
L 316.124583 88.420732 
L 316.037706 88.330808 
L 316.015987 88.334253 
L 315.646759 88.288967 
L 315.559882 88.183838 
L 315.538163 88.187282 
L 315.03862 88.162316 
L 315.03862 88.147406 
L 314.930023 88.164656 
L 314.756269 88.11765 
L 314.756269 88.087783 
L 314.669392 88.011913 
L 314.647673 88.015359 
L 314.43048 88.004961 
L 314.43048 87.945077 
L 314.408761 87.918566 
L 314.321884 87.932349 
L 314.104691 87.906857 
L 314.104691 87.861846 
L 314.082972 87.835272 
L 313.996095 87.849055 
L 313.800621 87.774885 
L 313.713744 87.728489 
L 313.692025 87.731933 
L 313.322797 87.685057 
L 313.322797 87.639809 
L 313.214201 87.657038 
L 312.519184 87.661726 
L 312.410588 87.542702 
L 312.04136 87.510398 
L 312.04136 87.495213 
L 311.976203 87.475199 
L 311.932764 87.482108 
L 311.563536 87.434408 
L 311.45494 87.32981 
L 311.172589 87.267897 
L 311.085712 87.220598 
L 311.063993 87.224051 
L 310.694766 87.175674 
L 310.629608 87.078764 
L 310.586169 87.085668 
L 310.282099 87.026562 
L 310.195222 86.994269 
L 310.173503 86.997722 
L 310.064907 86.907292 
L 310.021468 86.806368 
L 309.95631 86.816704 
L 309.630521 86.760405 
L 309.565363 86.739854 
L 309.521925 86.746749 
L 309.326451 86.669531 
L 309.217855 86.593851 
L 308.957224 86.52663 
L 308.870347 86.478298 
L 308.848627 86.48174 
L 308.457681 86.466014 
L 308.457681 86.434888 
L 308.349084 86.311903 
L 308.088453 86.275186 
L 308.088453 86.243957 
L 307.979857 86.151757 
L 307.697506 86.118193 
L 307.697506 86.086867 
L 307.675787 86.043295 
L 307.58891 86.057035 
L 307.349998 86.000701 
L 307.349998 85.985 
L 307.241401 85.844993 
L 306.828735 85.799939 
L 306.720139 85.611914 
L 306.589823 85.521768 
L 306.481227 85.364646 
L 306.372631 85.349993 
L 306.372631 85.270659 
L 306.264034 85.065188 
L 306.111999 85.025294 
L 306.111999 84.977503 
L 306.003403 84.77111 
L 305.938245 84.765288 
L 305.938245 84.669383 
L 305.829649 84.590263 
L 305.721052 84.543067 
L 305.721052 84.494983 
L 305.612456 84.254952 
L 305.525579 84.204056 
L 305.525579 84.171874 
L 305.416983 84.059792 
L 305.308386 83.97977 
L 305.221509 83.605082 
L 305.19979 83.608408 
L 305.156351 83.53402 
L 305.156351 83.517804 
L 305.047755 83.437043 
L 304.982597 83.430758 
L 304.982597 83.349519 
L 304.874001 83.203381 
L 304.765404 83.122144 
L 304.656808 82.74656 
L 304.569931 82.661417 
L 304.483054 82.198166 
L 304.461335 82.201417 
L 304.331019 82.138552 
L 304.331019 82.122069 
L 304.222423 81.758385 
L 304.157265 81.685283 
L 304.157265 81.668719 
L 304.048668 81.402764 
L 303.983511 81.412389 
L 303.983511 81.31264 
L 303.874914 80.895221 
L 303.70116 80.820345 
L 303.592564 80.652014 
L 303.527406 80.577663 
L 303.527406 80.560885 
L 303.41881 80.375095 
L 303.266775 80.296184 
L 303.158178 80.058978 
L 303.11474 79.98079 
L 303.11474 79.96389 
L 303.006143 79.827283 
L 302.962705 79.765781 
L 302.962705 79.73189 
L 302.854109 79.594798 
L 302.767231 79.505309 
L 302.658635 79.333658 
L 302.571758 79.260835 
L 302.571758 79.243785 
L 302.463162 79.037283 
L 302.354565 78.950059 
L 302.245969 78.674042 
L 302.137373 78.586281 
L 302.028776 78.274446 
L 301.941899 78.20033 
L 301.941899 78.183068 
L 301.833303 78.025414 
L 301.702987 77.991643 
L 301.702987 77.939699 
L 301.61611 77.830452 
L 301.594391 77.833466 
L 301.464075 77.747408 
L 301.355479 77.48416 
L 301.116567 77.412506 
L 301.00797 77.217869 
L 300.964532 77.223832 
L 300.964532 77.118867 
L 300.855936 76.905907 
L 300.747339 76.815376 
L 300.660462 76.598548 
L 300.638743 76.601494 
L 300.508427 76.513429 
L 300.399831 76.210195 
L 300.334673 76.201271 
L 300.334673 76.112759 
L 300.226077 76.038737 
L 300.1392 75.961688 
L 300.1392 75.943938 
L 300.030603 75.67401 
L 299.943726 75.578685 
L 299.83513 75.450388 
L 299.748253 75.390452 
L 299.748253 75.354708 
L 299.661376 75.151442 
L 299.639656 75.154303 
L 299.552779 75.076114 
L 299.552779 75.058178 
L 299.444183 74.910855 
L 299.400744 74.84464 
L 299.400744 74.808667 
L 299.292148 74.480442 
L 299.183552 74.422298 
L 299.183552 74.386156 
L 299.118394 74.249887 
L 299.074955 74.255501 
L 299.009798 74.173352 
L 299.009798 74.155228 
L 298.901201 73.860589 
L 298.857763 73.811592 
L 298.857763 73.757002 
L 298.792605 73.619598 
L 298.749166 73.625134 
L 298.662289 73.544993 
L 298.662289 73.52674 
L 298.553693 73.193083 
L 298.423377 73.099537 
L 298.314781 72.837662 
L 298.249623 72.735385 
L 298.141027 72.416882 
L 298.010711 72.340585 
L 298.010711 72.322085 
L 297.902115 72.131754 
L 297.858676 72.081458 
L 297.858676 72.025786 
L 297.75008 71.573963 
L 297.728361 71.5766 
L 297.728361 71.483332 
L 297.619764 71.197409 
L 297.576326 71.202633 
L 297.576326 71.108995 
L 297.467729 70.784175 
L 297.402571 70.73551 
L 297.402571 70.697882 
L 297.293975 70.333681 
L 297.185379 70.270859 
L 297.185379 70.251952 
L 297.076782 70.018538 
L 296.989905 69.952805 
L 296.989905 69.933829 
L 296.881309 69.62329 
L 296.816151 69.573673 
L 296.816151 69.535564 
L 296.707555 69.414547 
L 296.685836 69.417041 
L 296.685836 69.32156 
L 296.577239 68.970315 
L 296.425204 68.89162 
L 296.338327 68.728501 
L 296.316608 68.73095 
L 296.25145 68.661321 
L 296.25145 68.642068 
L 296.208012 68.473514 
L 296.142854 68.480809 
L 296.077696 68.43021 
L 296.077696 68.391596 
L 295.9691 68.249089 
L 295.882222 68.181337 
L 295.882222 68.161974 
L 295.773626 67.921918 
L 295.578153 67.865752 
L 295.578153 67.846309 
L 295.469556 67.449068 
L 295.382679 67.399931 
L 295.382679 67.360852 
L 295.274083 67.31398 
L 295.165487 67.267044 
L 295.165487 67.227883 
L 295.078609 67.158901 
L 295.05689 67.161246 
L 295.035171 67.163592 
L 295.035171 67.065522 
L 294.926575 66.80208 
L 294.731101 66.72449 
L 294.644224 66.575954 
L 294.622505 66.578261 
L 294.383593 66.524604 
L 294.383593 66.504832 
L 294.274996 66.298558 
L 294.231558 66.283314 
L 294.231558 66.203988 
L 294.1664 66.032115 
L 294.122961 66.036656 
L 293.970927 65.953086 
L 293.86233 65.765137 
L 293.753734 65.696566 
L 293.753734 65.676598 
L 293.732015 65.578944 
L 293.645138 65.587907 
L 293.536541 65.539097 
L 293.536541 65.499064 
L 293.471383 65.385566 
L 293.427945 65.390022 
L 293.297629 65.323144 
L 293.297629 65.303072 
L 293.232471 65.24949 
L 293.189033 65.253931 
L 292.950121 65.197914 
L 292.950121 65.177789 
L 292.841524 65.007528 
L 292.515735 64.939657 
L 292.450578 64.74398 
L 292.407139 64.748358 
L 292.211666 64.707271 
L 292.211666 64.666716 
L 292.103069 64.433925 
L 291.994473 64.363384 
L 291.994473 64.343029 
L 291.885877 64.190813 
L 291.712122 64.105961 
L 291.668684 64.048958 
L 291.603526 64.055386 
L 291.408053 63.972363 
L 291.321175 63.878472 
L 291.299456 63.880604 
L 291.147421 63.792938 
L 291.103983 63.673933 
L 291.038825 63.680289 
L 290.930229 63.588009 
L 290.821632 63.454338 
L 290.713036 63.361682 
L 290.60444 63.310198 
L 290.387247 63.227712 
L 290.27865 63.093131 
L 290.170054 62.99979 
L 290.170054 62.97903 
L 290.061458 62.989394 
L 289.9963 62.933275 
L 289.9963 62.891695 
L 289.887704 62.777156 
L 289.800826 62.743725 
L 289.800826 62.681195 
L 289.757388 62.539243 
L 289.69223 62.545367 
L 289.40988 62.467372 
L 289.323003 62.328928 
L 289.301283 62.330956 
L 289.127529 62.242292 
L 289.062371 62.101307 
L 289.018933 62.105332 
L 288.866898 62.035256 
L 288.866898 62.014203 
L 288.758301 61.855615 
L 288.606267 61.785138 
L 288.606267 61.764016 
L 288.49767 61.647101 
L 288.323916 61.578251 
L 288.323916 61.557065 
L 288.280477 61.433799 
L 288.21532 61.439696 
L 288.128443 61.383868 
L 288.128443 61.341386 
L 288.041566 61.285451 
L 288.019846 61.287406 
L 287.846092 61.239208 
L 287.846092 61.196619 
L 287.759215 61.11917 
L 287.737496 61.121114 
L 287.650619 61.06489 
L 287.650619 61.022202 
L 287.563742 60.816209 
L 287.542022 60.81813 
L 287.281391 60.734082 
L 287.194514 60.613026 
L 287.172795 60.614933 
L 286.977321 60.524652 
L 286.890444 60.403133 
L 286.868725 60.405026 
L 286.781848 60.304842 
L 286.673251 60.163184 
L 286.521217 60.089843 
L 286.521217 60.068215 
L 286.477778 60.028677 
L 286.41262 60.034275 
L 286.217147 59.942722 
L 286.13027 59.906779 
L 286.10855 59.908638 
L 285.934796 59.836629 
L 285.934796 59.814898 
L 285.8262 59.715399 
L 285.695884 59.639348 
L 285.695884 59.617557 
L 285.630726 59.514027 
L 285.587288 59.517687 
L 285.304937 59.43223 
L 285.304937 59.410361 
L 285.196341 59.419484 
L 285.022587 59.324578 
L 284.93571 59.244139 
L 284.91399 59.245952 
L 284.63164 59.181666 
L 284.63164 59.159684 
L 284.523044 59.014681 
L 284.436166 58.911678 
L 284.32757 58.788205 
L 284.132097 58.693685 
L 284.088658 58.586563 
L 284.0235 58.591858 
L 283.806308 58.498633 
L 283.719431 58.37242 
L 283.697711 58.374169 
L 283.523957 58.276932 
L 283.458799 58.19307 
L 283.415361 58.196543 
L 283.198168 58.124675 
L 283.154729 58.016467 
L 283.089572 58.021638 
L 282.611748 57.970041 
L 282.611748 57.925214 
L 282.503151 57.933816 
L 282.112204 57.874967 
L 282.025327 57.769359 
L 282.003608 57.77107 
L 281.764696 57.699754 
L 281.677819 57.593751 
L 281.6561 57.59545 
L 281.460626 57.520331 
L 281.373749 57.436589 
L 281.35203 57.438276 
L 281.178276 57.361127 
L 281.178276 57.338452 
L 281.069679 57.346857 
L 280.787329 57.323311 
L 280.787329 57.27786 
L 280.678733 57.218014 
L 280.591855 57.156409 
L 280.591855 57.133633 
L 280.504978 57.049125 
L 280.483259 57.050785 
L 280.352943 56.96945 
L 280.244347 56.749065 
L 279.875119 56.685197 
L 279.809962 56.552347 
L 279.766523 56.555591 
L 279.54933 56.525831 
L 279.54933 56.479813 
L 279.440734 56.280515 
L 279.180103 56.207359 
L 279.071506 56.076571 
L 278.550244 56.021904 
L 278.441648 55.983382 
L 278.07242 55.917223 
L 277.963824 55.738642 
L 277.724912 55.732504 
L 277.724912 55.662418 
L 277.638035 55.621891 
L 277.616315 55.623446 
L 277.312245 55.551547 
L 277.247088 55.509309 
L 277.203649 55.512405 
L 276.899579 55.440139 
L 276.790983 55.330239 
L 276.530352 55.254398 
L 276.443475 55.189735 
L 276.421755 55.19126 
L 276.182843 55.113506 
L 276.117686 55.047088 
L 276.074247 55.050117 
L 275.878774 54.968964 
L 275.770177 54.881597 
L 275.335792 54.816528 
L 275.227195 54.704913 
L 275.031722 54.622877 
L 274.944845 54.413691 
L 274.923126 54.415155 
L 274.771091 54.329616 
L 274.684214 54.167554 
L 274.662494 54.168998 
L 274.575617 54.078689 
L 274.48874 53.940108 
L 274.467021 53.941533 
L 274.358425 53.852292 
L 274.249828 53.71462 
L 274.18467 53.622207 
L 274.097793 53.313108 
L 274.076074 53.314477 
L 273.858881 53.23109 
L 273.772004 52.895996 
L 273.750285 52.897328 
L 273.59825 52.833506 
L 273.59825 52.809113 
L 273.489654 52.522499 
L 273.337619 52.458127 
L 273.337619 52.433628 
L 273.250742 52.218 
L 273.229022 52.219271 
L 273.098707 52.128582 
L 273.01183 51.985951 
L 272.99011 51.987202 
L 272.859795 51.89609 
L 272.794637 51.751697 
L 272.751198 51.754157 
L 272.490567 51.669958 
L 272.40369 51.550972 
L 272.381971 51.552185 
L 272.186497 51.463823 
L 272.143059 51.267376 
L 272.077901 51.270939 
L 271.969305 51.177256 
L 271.904147 51.081061 
L 271.860708 51.083404 
L 271.013657 51.054117 
L 271.013657 51.029057 
L 271.013657 51.003991 
L 270.90506 51.009837 
L 270.470675 50.932724 
L 270.362079 50.863045 
L 269.145799 50.827002 
L 269.12408 50.77748 
L 269.037203 50.782111 
L 268.711414 50.697893 
L 268.667975 50.649346 
L 268.602818 50.652789 
L 268.190151 50.572662 
L 268.190151 50.521638 
L 268.081555 50.527329 
L 267.907801 50.434206 
L 267.799205 50.235026 
L 267.668889 50.139094 
L 267.560293 49.990468 
L 267.408258 49.895154 
L 267.299661 49.539417 
L 267.147626 49.469161 
L 267.147626 49.443291 
L 267.03903 49.163409 
L 266.952153 49.089557 
L 266.952153 49.063583 
L 266.908714 49.013608 
L 266.843557 49.016593 
L 266.73496 48.917474 
L 266.691522 48.789176 
L 266.626364 48.792097 
L 266.539487 48.743811 
L 266.539487 48.691606 
L 266.430891 48.434946 
L 266.257136 48.337632 
L 266.170259 48.105065 
L 266.14854 48.105972 
L 265.84447 48.013368 
L 265.735874 47.965145 
L 265.106015 47.885347 
L 265.106015 47.858878 
L 264.997419 47.863313 
L 263.954894 47.799622 
L 263.954894 47.772981 
L 263.846297 47.777398 
L 261.761247 47.755379 
L 261.761247 47.72843 
L 261.652651 47.732873 
L 260.327775 47.678867 
L 260.327775 47.651703 
L 260.219179 47.656138 
L 255.788448 47.730151 
L 255.745009 47.676361 
L 255.679851 47.679094 
L 248.86 47.917961 
L 248.86 47.860328 
L 248.751404 46.938902 
L 248.686246 46.912427 
L 248.686246 46.854276 
L 248.577649 46.567226 
L 248.512492 46.569694 
L 248.512492 46.482136 
L 248.447334 46.250712 
L 248.403895 46.252286 
L 248.317018 46.226155 
L 248.317018 46.167568 
L 248.317018 46.050312 
L 248.208422 46.05414 
L 225.468345 46.967255 
L 206.659456 47.938321 
L 190.934703 48.96634 
L 177.642509 50.051968 
L 168.954801 50.756366 
L 168.846204 50.6676 
L 168.715889 50.631029 
L 168.715889 50.580833 
L 168.715889 50.530616 
L 168.607292 50.541833 
L 168.563854 50.496021 
L 168.563854 50.445696 
L 168.520415 50.349403 
L 168.455257 50.356038 
L 168.020872 50.299191 
L 168.020872 50.147109 
L 167.912276 50.158027 
L 167.608206 50.086849 
L 167.608206 50.035883 
L 167.49961 50.046736 
L 167.217259 49.972704 
L 167.217259 49.921494 
L 167.108663 49.932276 
L 166.652558 49.874796 
L 166.652558 49.823258 
L 166.543962 49.834004 
L 165.914103 49.79293 
L 165.914103 49.740977 
L 165.805506 49.75172 
L 165.11049 49.716262 
L 165.001893 49.622126 
L 164.697824 49.546875 
L 164.697824 49.494178 
L 164.589227 49.504803 
L 164.133122 49.443652 
L 164.046245 49.239668 
L 164.024526 49.241754 
L 158.507831 49.6896 
L 158.507831 49.577254 
L 158.399235 49.588681 
L 156.878886 49.69427 
L 156.878886 49.637105 
L 156.770289 49.648803 
L 155.184783 49.764514 
L 155.184783 49.706296 
L 155.076186 49.718294 
L 153.577557 49.827554 
L 153.577557 49.768296 
L 153.46896 49.780586 
L 152.448154 49.837556 
L 152.448154 49.777529 
L 152.339558 49.78999 
L 150.79749 49.909108 
L 150.79749 49.847947 
L 150.688894 49.860734 
L 145.150479 50.426992 
L 145.063602 50.307861 
L 145.041883 50.310718 
L 144.650936 50.296686 
L 144.650936 50.23095 
L 144.54234 50.245223 
L 144.412024 50.262402 
L 144.412024 50.196447 
L 144.303428 50.078537 
L 144.281708 50.081363 
L 144.281708 50.015202 
L 144.281708 49.949005 
L 144.173112 49.962987 
L 144.151393 49.965788 
L 144.151393 49.899454 
L 144.086235 49.77494 
L 144.042796 49.780454 
L 143.9342 49.794262 
L 143.9342 49.727652 
L 143.869042 49.468901 
L 143.825604 49.474272 
L 143.543253 49.442226 
L 143.543253 49.37509 
L 143.434657 49.388464 
L 143.260903 49.342538 
L 143.174026 49.218193 
L 143.152306 49.220837 
L 142.826517 49.192805 
L 142.826517 49.124908 
L 142.717921 49.138079 
L 142.479009 49.098962 
L 142.479009 49.030704 
L 142.370413 49.043811 
L 142.283536 48.985865 
L 142.174939 48.793078 
L 142.131501 48.729477 
L 142.066343 48.530538 
L 142.022904 48.53554 
L 141.762273 48.496468 
L 141.762273 48.427231 
L 141.653677 48.439658 
L 141.175853 48.42497 
L 141.088976 48.015044 
L 141.067256 48.017438 
L 140.632871 48.065595 
L 140.632871 47.995067 
L 140.632871 47.783247 
L 140.524275 47.794987 
L 140.220205 47.75698 
L 140.155047 47.336514 
L 140.111608 47.340991 
L 139.850977 47.367957 
L 139.850977 47.296286 
L 139.850977 47.224573 
L 139.742381 47.235665 
L 139.655504 47.172629 
L 139.568627 46.893004 
L 139.546907 46.895136 
L 139.307995 46.84621 
L 139.199399 46.493415 
L 138.917048 46.44683 
L 138.917048 46.227333 
L 138.808452 46.237163 
L 138.721575 46.171611 
L 138.634698 45.811185 
L 138.612979 45.813038 
L 138.091716 45.783537 
L 138.004839 45.567543 
L 137.98312 45.569342 
L 137.831085 45.507229 
L 137.809366 45.359362 
L 137.722489 45.366345 
L 137.67905 45.29482 
L 137.592173 45.151387 
L 137.570454 45.153076 
L 137.505296 45.082819 
L 137.505296 45.007442 
L 137.396699 45.0157 
L 137.353261 44.943435 
L 137.353261 44.867815 
L 137.244665 44.875886 
L 137.179507 44.804898 
L 137.179507 44.729011 
L 137.07091 44.736899 
L 136.506209 44.70167 
L 136.419332 44.47757 
L 136.397613 44.479088 
L 136.20214 44.492793 
L 136.20214 44.415659 
L 136.158701 44.186848 
L 136.093543 44.191162 
L 135.572281 44.147965 
L 135.528842 43.916425 
L 135.463684 43.920533 
L 134.356001 43.912026 
L 134.312563 43.7555 
L 134.247405 43.759533 
L 133.139722 43.748202 
L 133.074564 43.589841 
L 133.031126 43.592475 
L 131.402181 43.61041 
L 131.250146 43.452748 
L 129.599481 43.468973 
L 129.599481 43.383141 
L 129.490885 43.38975 
L 128.513517 43.362912 
L 128.470079 43.190614 
L 128.404921 43.194453 
L 125.516258 43.281195 
L 125.516258 43.189336 
L 125.407662 43.196055 
L 123.474647 43.224754 
L 123.474647 43.129589 
L 123.36605 43.136437 
L 123.0837 43.058494 
L 123.0837 42.962552 
L 122.975103 42.969138 
L 121.88914 42.938378 
L 121.88914 42.840292 
L 121.780543 42.846787 
L 120.868334 42.802412 
L 120.846615 42.603527 
L 120.759738 42.608454 
L 119.521739 42.577749 
L 119.521739 42.475033 
L 119.413143 42.481092 
L 117.588724 42.480095 
L 117.588724 42.373447 
L 117.480128 42.379524 
L 116.915427 42.303422 
L 116.915427 42.195214 
L 116.80683 42.200999 
L 109.183366 42.551716 
L 109.183366 42.424368 
L 109.07477 42.431756 
L 107.923648 42.512403 
L 107.923648 42.381186 
L 107.815052 42.388687 
L 103.862144 42.690682 
L 103.862144 42.545581 
L 103.753548 42.554352 
L 103.275724 42.593544 
L 103.275724 42.446047 
L 103.167128 42.454672 
L 102.928216 42.473824 
L 102.928216 42.324798 
L 102.819619 42.333155 
L 102.776181 42.336512 
L 102.776181 42.186709 
L 102.667585 42.194701 
L 99.018747 42.493419 
L 99.018747 42.32676 
L 98.910151 42.336116 
L 98.758116 42.349318 
L 98.758116 42.181143 
L 98.649519 42.1901 
L 98.475765 42.204554 
L 98.475765 42.034724 
L 98.367169 42.043277 
L 98.236853 42.053617 
L 98.236853 41.882326 
L 98.128257 41.890438 
L 96.347277 42.031682 
L 96.347277 41.849684 
L 96.23868 41.858189 
L 96.021488 41.87538 
L 96.021488 41.691181 
L 95.912891 41.699212 
L 93.827841 41.865465 
L 93.827841 41.666716 
L 93.719245 41.675289 
L 93.371736 41.703176 
L 93.371736 41.500857 
L 93.26314 41.508924 
L 92.828755 41.541838 
L 92.828755 41.33516 
L 92.720158 41.342728 
L 92.67672 41.345772 
L 92.67672 41.137598 
L 92.568123 41.144412 
L 92.437808 41.152662 
L 92.437808 40.942289 
L 92.329211 40.948369 
L 89.831495 41.103408 
L 89.831495 40.869912 
L 89.722899 40.876332 
L 89.39711 40.895949 
L 89.39711 40.65773 
L 89.288513 40.663291 
L 86.356412 40.835737 
L 86.356412 40.561759 
L 86.247815 40.567645 
L 84.249642 40.688383 
L 84.249642 40.38238 
L 84.141046 40.387884 
L 83.902134 40.400226 
L 83.902134 40.087576 
L 83.793538 40.091398 
L 79.102175 40.316823 
L 79.102175 39.889121 
L 78.993579 39.892703 
L 73.867831 40.174019 
L 72.043412 40.388992 
L 72.043412 39.46 
L 71.934816 39.46 
L 66.005455 39.46 
L 66.005455 39.46 
" clip-path="url(#pc2bffa1d39)" style="fill: none; stroke: #1f77b4; stroke-width: 2; stroke-linecap: square"/>
   </g>
   <g id="patch_3">
    <path d="M 47.72 303.64 
L 47.72 26.88 
" style="fill: none; stroke: #000000; stroke-width: 0.8; stroke-linejoin: miter; stroke-linecap: square"/>
   </g>
   <g id="patch_4">
    <path d="M 450 303.64 
L 450 26.88 
" style="fill: none; stroke: #000000; stroke-width: 0.8; stroke-linejoin: miter; stroke-linecap: square"/>
   </g>
   <g id="patch_5">
    <path d="M 47.72 303.64 
L 450 303.64 
" style="fill: none; stroke: #000000; stroke-width: 0.8; stroke-linejoin: miter; stroke-linecap: square"/>
   </g>
   <g id="patch_6">
    <path d="M 47.72 26.88 
L 450 26.88 
" style="fill: none; stroke: #000000; stroke-width: 0.8; stroke-linejoin: miter; stroke-linecap: square"/>
   </g>
   <g id="text_15">
    <!-- PR  block-level -->
    <g transform="translate(198.905312 20.88) scale(0.12 -0.12)">
     <defs>
      <path id="DejaVuSans-20" transform="scale(0.015625)"/>
      <path id="DejaVuSans-2014" d="M 313 1978 
L 6088 1978 
L 6088 1528 
L 313 1528 
L 313 1978 
z
" transform="scale(0.015625)"/>
      <path id="DejaVuSans-62" d="M 3116 1747 
Q 3116 2381 2855 2742 
Q 2594 3103 2138 3103 
Q 1681 3103 1420 2742 
Q 1159 2381 1159 1747 
Q 1159 1113 1420 752 
Q 1681 391 2138 391 
Q 2594 391 2855 752 
Q 3116 1113 3116 1747 
z
M 1159 2969 
Q 1341 3281 1617 3432 
Q 1894 3584 2278 3584 
Q 2916 3584 3314 3078 
Q 3713 2572 3713 1747 
Q 3713 922 3314 415 
Q 2916 -91 2278 -91 
Q 1894 -91 1617 61 
Q 1341 213 1159 525 
L 1159 0 
L 581 0 
L 581 4863 
L 1159 4863 
L 1159 2969 
z
" transform="scale(0.015625)"/>
      <path id="DejaVuSans-6b" d="M 581 4863 
L 1159 4863 
L 1159 1991 
L 2875 3500 
L 3609 3500 
L 1753 1863 
L 3688 0 
L 2938 0 
L 1159 1709 
L 1159 0 
L 581 0 
L 581 4863 
z
" transform="scale(0.015625)"/>
      <path id="DejaVuSans-2d" d="M 313 2009 
L 1997 2009 
L 1997 1497 
L 313 1497 
L 313 2009 
z
" transform="scale(0.015625)"/>
      <path id="DejaVuSans-76" d="M 191 3500 
L 800 3500 
L 1894 563 
L 2988 3500 
L 3597 3500 
L 2284 0 
L 1503 0 
L 191 3500 
z
" transform="scale(0.015625)"/>
     </defs>
     <use xlink:href="#DejaVuSans-50"/>
     <use xlink:href="#DejaVuSans-52" transform="translate(60.302734 0)"/>
     <use xlink:href="#DejaVuSans-20" transform="translate(129.785156 0)"/>
     <use xlink:href="#DejaVuSans-2014" transform="translate(161.572266 0)"/>
     <use xlink:href="#DejaVuSans-20" transform="translate(261.572266 0)"/>
     <use xlink:href="#DejaVuSans-62" transform="translate(293.359375 0)"/>
     <use xlink:href="#DejaVuSans-6c" transform="translate(356.835938 0)"/>
     <use xlink:href="#DejaVuSans-6f" transform="translate(384.619141 0)"/>
     <use xlink:href="#DejaVuSans-63" transform="translate(445.800781 0)"/>
     <use xlink:href="#DejaVuSans-6b" transform="translate(500.78125 0)"/>
     <use xlink:href="#DejaVuSans-2d" transform="translate(558.691406 0)"/>
     <use xlink:href="#DejaVuSans-6c" transform="translate(594.775391 0)"/>
     <use xlink:href="#DejaVuSans-65" transform="translate(622.558594 0)"/>
     <use xlink:href="#DejaVuSans-76" transform="translate(684.082031 0)"/>
     <use xlink:href="#DejaVuSans-65" transform="translate(743.261719 0)"/>
     <use xlink:href="#DejaVuSans-6c" transform="translate(804.785156 0)"/>
    </g>
   </g>
   <g id="legend_1">
    <g id="patch_7">
     <path d="M 328.890625 49.558125 
L 443 49.558125 
Q 445 49.558125 445 47.558125 
L 445 33.88 
Q 445 31.88 443 31.88 
L 328.890625 31.88 
Q 326.890625 31.88 326.890625 33.88 
L 326.890625 47.558125 
Q 326.890625 49.558125 328.890625 49.558125 
z
" style="fill: #ffffff; opacity: 0.8; stroke: #cccccc; stroke-linejoin: miter"/>
    </g>
    <g id="line2d_26">
     <path d="M 330.890625 39.978437 
L 340.890625 39.978437 
L 350.890625 39.978437 
" style="fill: none; stroke: #1f77b4; stroke-width: 2; stroke-linecap: square"/>
    </g>
    <g id="text_16">
     <!-- PR (AUC=0.755) -->
     <g transform="translate(358.890625 43.478437) scale(0.1 -0.1)">
      <defs>
       <path id="DejaVuSans-28" d="M 1984 4856 
Q 1566 4138 1362 3434 
Q 1159 2731 1159 2009 
Q 1159 1288 1364 580 
Q 1569 -128 1984 -844 
L 1484 -844 
Q 1016 -109 783 600 
Q 550 1309 550 2009 
Q 550 2706 781 3412 
Q 1013 4119 1484 4856 
L 1984 4856 
z
" transform="scale(0.015625)"/>
       <path id="DejaVuSans-41" d="M 2188 4044 
L 1331 1722 
L 3047 1722 
L 2188 4044 
z
M 1831 4666 
L 2547 4666 
L 4325 0 
L 3669 0 
L 3244 1197 
L 1141 1197 
L 716 0 
L 50 0 
L 1831 4666 
z
" transform="scale(0.015625)"/>
       <path id="DejaVuSans-55" d="M 556 4666 
L 1191 4666 
L 1191 1831 
Q 1191 1081 1462 751 
Q 1734 422 2344 422 
Q 2950 422 3222 751 
Q 3494 1081 3494 1831 
L 3494 4666 
L 4128 4666 
L 4128 1753 
Q 4128 841 3676 375 
Q 3225 -91 2344 -91 
Q 1459 -91 1007 375 
Q 556 841 556 1753 
L 556 4666 
z
" transform="scale(0.015625)"/>
       <path id="DejaVuSans-43" d="M 4122 4306 
L 4122 3641 
Q 3803 3938 3442 4084 
Q 3081 4231 2675 4231 
Q 1875 4231 1450 3742 
Q 1025 3253 1025 2328 
Q 1025 1406 1450 917 
Q 1875 428 2675 428 
Q 3081 428 3442 575 
Q 3803 722 4122 1019 
L 4122 359 
Q 3791 134 3420 21 
Q 3050 -91 2638 -91 
Q 1578 -91 968 557 
Q 359 1206 359 2328 
Q 359 3453 968 4101 
Q 1578 4750 2638 4750 
Q 3056 4750 3426 4639 
Q 3797 4528 4122 4306 
z
" transform="scale(0.015625)"/>
       <path id="DejaVuSans-3d" d="M 678 2906 
L 4684 2906 
L 4684 2381 
L 678 2381 
L 678 2906 
z
M 678 1631 
L 4684 1631 
L 4684 1100 
L 678 1100 
L 678 1631 
z
" transform="scale(0.015625)"/>
       <path id="DejaVuSans-37" d="M 525 4666 
L 3525 4666 
L 3525 4397 
L 1831 0 
L 1172 0 
L 2766 4134 
L 525 4134 
L 525 4666 
z
" transform="scale(0.015625)"/>
       <path id="DejaVuSans-35" d="M 691 4666 
L 3169 4666 
L 3169 4134 
L 1269 4134 
L 1269 2991 
Q 1406 3038 1543 3061 
Q 1681 3084 1819 3084 
Q 2600 3084 3056 2656 
Q 3513 2228 3513 1497 
Q 3513 744 3044 326 
Q 2575 -91 1722 -91 
Q 1428 -91 1123 -41 
Q 819 9 494 109 
L 494 744 
Q 775 591 1075 516 
Q 1375 441 1709 441 
Q 2250 441 2565 725 
Q 2881 1009 2881 1497 
Q 2881 1984 2565 2268 
Q 2250 2553 1709 2553 
Q 1456 2553 1204 2497 
Q 953 2441 691 2322 
L 691 4666 
z
" transform="scale(0.015625)"/>
       <path id="DejaVuSans-29" d="M 513 4856 
L 1013 4856 
Q 1481 4119 1714 3412 
Q 1947 2706 1947 2009 
Q 1947 1309 1714 600 
Q 1481 -109 1013 -844 
L 513 -844 
Q 928 -128 1133 580 
Q 1338 1288 1338 2009 
Q 1338 2731 1133 3434 
Q 928 4138 513 4856 
z
" transform="scale(0.015625)"/>
      </defs>
      <use xlink:href="#DejaVuSans-50"/>
      <use xlink:href="#DejaVuSans-52" transform="translate(60.302734 0)"/>
      <use xlink:href="#DejaVuSans-20" transform="translate(129.785156 0)"/>
      <use xlink:href="#DejaVuSans-28" transform="translate(161.572266 0)"/>
      <use xlink:href="#DejaVuSans-41" transform="translate(200.585938 0)"/>
      <use xlink:href="#DejaVuSans-55" transform="translate(268.994141 0)"/>
      <use xlink:href="#DejaVuSans-43" transform="translate(342.1875 0)"/>
      <use xlink:href="#DejaVuSans-3d" transform="translate(412.011719 0)"/>
      <use xlink:href="#DejaVuSans-30" transform="translate(495.800781 0)"/>
      <use xlink:href="#DejaVuSans-2e" transform="translate(559.423828 0)"/>
      <use xlink:href="#DejaVuSans-37" transform="translate(591.210938 0)"/>
      <use xlink:href="#DejaVuSans-35" transform="translate(654.833984 0)"/>
      <use xlink:href="#DejaVuSans-35" transform="translate(718.457031 0)"/>
      <use xlink:href="#DejaVuSans-29" transform="translate(782.080078 0)"/>
     </g>
    </g>
   </g>
  </g>
 </g>
 <defs>
  <clipPath id="pc2bffa1d39">
   <rect x="47.72" y="26.88" width="402.28" height="276.76"/>
  </clipPath>
 </defs>
</svg>
