<?xml version="1.0" encoding="utf-8" standalone="no"?>
<!DOCTYPE svg PUBLIC "-//W3C//DTD SVG 1.1//EN"
  "http://www.w3.org/Graphics/SVG/1.1/DTD/svg11.dtd">
<svg xmlns:xlink="http://www.w3.org/1999/xlink" width="460.8pt" height="345.6pt" viewBox="0 0 460.8 345.6" xmlns="http://www.w3.org/2000/svg" version="1.1">
 <metadata>
  <rdf:RDF xmlns:dc="http://purl.org/dc/elements/1.1/" xmlns:cc="http://creativecommons.org/ns#" xmlns:rdf="http://www.w3.org/1999/02/22-rdf-syntax-ns#">
   <cc:Work>
    <dc:type rdf:resource="http://purl.org/dc/dcmitype/StillImage"/>
    <dc:date>2025-08-16T00:27:46.302904</dc:date>
    <dc:format>image/svg+xml</dc:format>
    <dc:creator>
     <cc:Agent>
      <dc:title>Matplotlib v3.10.0, https://matplotlib.org/</dc:title>
     </cc:Agent>
    </dc:creator>
   </cc:Work>
  </rdf:RDF>
 </metadata>
 <defs>
  <style type="text/css">*{stroke-linejoin: round; stroke-linecap: butt}</style>
 </defs>
 <g id="figure_1">
  <g id="patch_1">
   <path d="M 0 345.6 
L 460.8 345.6 
L 460.8 0 
L 0 0 
z
" style="fill: #ffffff"/>
  </g>
  <g id="axes_1">
   <g id="patch_2">
    <path d="M 47.72 303.64 
L 450 303.64 
L 450 26.88 
L 47.72 26.88 
z
" style="fill: #ffffff"/>
   </g>
   <g id="matplotlib.axis_1">
    <g id="xtick_1">
     <g id="line2d_1">
      <path d="M 66.005455 303.64 
L 66.005455 26.88 
" clip-path="url(#p9308cdc3f2)" style="fill: none; stroke: #b0b0b0; stroke-width: 0.8; stroke-linecap: square"/>
     </g>
     <g id="line2d_2">
      <defs>
       <path id="mdf77d7d931" d="M 0 0 
L 0 3.5 
" style="stroke: #000000; stroke-width: 0.8"/>
      </defs>
      <g>
       <use xlink:href="#mdf77d7d931" x="66.005455" y="303.64" style="stroke: #000000; stroke-width: 0.8"/>
      </g>
     </g>
     <g id="text_1">
      <!-- 0.0 -->
      <g transform="translate(58.053892 318.238437) scale(0.1 -0.1)">
       <defs>
        <path id="DejaVuSans-30" d="M 2034 4250 
Q 1547 4250 1301 3770 
Q 1056 3291 1056 2328 
Q 1056 1369 1301 889 
Q 1547 409 2034 409 
Q 2525 409 2770 889 
Q 3016 1369 3016 2328 
Q 3016 3291 2770 3770 
Q 2525 4250 2034 4250 
z
M 2034 4750 
Q 2819 4750 3233 4129 
Q 3647 3509 3647 2328 
Q 3647 1150 3233 529 
Q 2819 -91 2034 -91 
Q 1250 -91 836 529 
Q 422 1150 422 2328 
Q 422 3509 836 4129 
Q 1250 4750 2034 4750 
z
" transform="scale(0.015625)"/>
        <path id="DejaVuSans-2e" d="M 684 794 
L 1344 794 
L 1344 0 
L 684 0 
L 684 794 
z
" transform="scale(0.015625)"/>
       </defs>
       <use xlink:href="#DejaVuSans-30"/>
       <use xlink:href="#DejaVuSans-2e" transform="translate(63.623047 0)"/>
       <use xlink:href="#DejaVuSans-30" transform="translate(95.410156 0)"/>
      </g>
     </g>
    </g>
    <g id="xtick_2">
     <g id="line2d_3">
      <path d="M 139.147273 303.64 
L 139.147273 26.88 
" clip-path="url(#p9308cdc3f2)" style="fill: none; stroke: #b0b0b0; stroke-width: 0.8; stroke-linecap: square"/>
     </g>
     <g id="line2d_4">
      <g>
       <use xlink:href="#mdf77d7d931" x="139.147273" y="303.64" style="stroke: #000000; stroke-width: 0.8"/>
      </g>
     </g>
     <g id="text_2">
      <!-- 0.2 -->
      <g transform="translate(131.19571 318.238437) scale(0.1 -0.1)">
       <defs>
        <path id="DejaVuSans-32" d="M 1228 531 
L 3431 531 
L 3431 0 
L 469 0 
L 469 531 
Q 828 903 1448 1529 
Q 2069 2156 2228 2338 
Q 2531 2678 2651 2914 
Q 2772 3150 2772 3378 
Q 2772 3750 2511 3984 
Q 2250 4219 1831 4219 
Q 1534 4219 1204 4116 
Q 875 4013 500 3803 
L 500 4441 
Q 881 4594 1212 4672 
Q 1544 4750 1819 4750 
Q 2544 4750 2975 4387 
Q 3406 4025 3406 3419 
Q 3406 3131 3298 2873 
Q 3191 2616 2906 2266 
Q 2828 2175 2409 1742 
Q 1991 1309 1228 531 
z
" transform="scale(0.015625)"/>
       </defs>
       <use xlink:href="#DejaVuSans-30"/>
       <use xlink:href="#DejaVuSans-2e" transform="translate(63.623047 0)"/>
       <use xlink:href="#DejaVuSans-32" transform="translate(95.410156 0)"/>
      </g>
     </g>
    </g>
    <g id="xtick_3">
     <g id="line2d_5">
      <path d="M 212.289091 303.64 
L 212.289091 26.88 
" clip-path="url(#p9308cdc3f2)" style="fill: none; stroke: #b0b0b0; stroke-width: 0.8; stroke-linecap: square"/>
     </g>
     <g id="line2d_6">
      <g>
       <use xlink:href="#mdf77d7d931" x="212.289091" y="303.64" style="stroke: #000000; stroke-width: 0.8"/>
      </g>
     </g>
     <g id="text_3">
      <!-- 0.4 -->
      <g transform="translate(204.337528 318.238437) scale(0.1 -0.1)">
       <defs>
        <path id="DejaVuSans-34" d="M 2419 4116 
L 825 1625 
L 2419 1625 
L 2419 4116 
z
M 2253 4666 
L 3047 4666 
L 3047 1625 
L 3713 1625 
L 3713 1100 
L 3047 1100 
L 3047 0 
L 2419 0 
L 2419 1100 
L 313 1100 
L 313 1709 
L 2253 4666 
z
" transform="scale(0.015625)"/>
       </defs>
       <use xlink:href="#DejaVuSans-30"/>
       <use xlink:href="#DejaVuSans-2e" transform="translate(63.623047 0)"/>
       <use xlink:href="#DejaVuSans-34" transform="translate(95.410156 0)"/>
      </g>
     </g>
    </g>
    <g id="xtick_4">
     <g id="line2d_7">
      <path d="M 285.430909 303.64 
L 285.430909 26.88 
" clip-path="url(#p9308cdc3f2)" style="fill: none; stroke: #b0b0b0; stroke-width: 0.8; stroke-linecap: square"/>
     </g>
     <g id="line2d_8">
      <g>
       <use xlink:href="#mdf77d7d931" x="285.430909" y="303.64" style="stroke: #000000; stroke-width: 0.8"/>
      </g>
     </g>
     <g id="text_4">
      <!-- 0.6 -->
      <g transform="translate(277.479347 318.238437) scale(0.1 -0.1)">
       <defs>
        <path id="DejaVuSans-36" d="M 2113 2584 
Q 1688 2584 1439 2293 
Q 1191 2003 1191 1497 
Q 1191 994 1439 701 
Q 1688 409 2113 409 
Q 2538 409 2786 701 
Q 3034 994 3034 1497 
Q 3034 2003 2786 2293 
Q 2538 2584 2113 2584 
z
M 3366 4563 
L 3366 3988 
Q 3128 4100 2886 4159 
Q 2644 4219 2406 4219 
Q 1781 4219 1451 3797 
Q 1122 3375 1075 2522 
Q 1259 2794 1537 2939 
Q 1816 3084 2150 3084 
Q 2853 3084 3261 2657 
Q 3669 2231 3669 1497 
Q 3669 778 3244 343 
Q 2819 -91 2113 -91 
Q 1303 -91 875 529 
Q 447 1150 447 2328 
Q 447 3434 972 4092 
Q 1497 4750 2381 4750 
Q 2619 4750 2861 4703 
Q 3103 4656 3366 4563 
z
" transform="scale(0.015625)"/>
       </defs>
       <use xlink:href="#DejaVuSans-30"/>
       <use xlink:href="#DejaVuSans-2e" transform="translate(63.623047 0)"/>
       <use xlink:href="#DejaVuSans-36" transform="translate(95.410156 0)"/>
      </g>
     </g>
    </g>
    <g id="xtick_5">
     <g id="line2d_9">
      <path d="M 358.572727 303.64 
L 358.572727 26.88 
" clip-path="url(#p9308cdc3f2)" style="fill: none; stroke: #b0b0b0; stroke-width: 0.8; stroke-linecap: square"/>
     </g>
     <g id="line2d_10">
      <g>
       <use xlink:href="#mdf77d7d931" x="358.572727" y="303.64" style="stroke: #000000; stroke-width: 0.8"/>
      </g>
     </g>
     <g id="text_5">
      <!-- 0.8 -->
      <g transform="translate(350.621165 318.238437) scale(0.1 -0.1)">
       <defs>
        <path id="DejaVuSans-38" d="M 2034 2216 
Q 1584 2216 1326 1975 
Q 1069 1734 1069 1313 
Q 1069 891 1326 650 
Q 1584 409 2034 409 
Q 2484 409 2743 651 
Q 3003 894 3003 1313 
Q 3003 1734 2745 1975 
Q 2488 2216 2034 2216 
z
M 1403 2484 
Q 997 2584 770 2862 
Q 544 3141 544 3541 
Q 544 4100 942 4425 
Q 1341 4750 2034 4750 
Q 2731 4750 3128 4425 
Q 3525 4100 3525 3541 
Q 3525 3141 3298 2862 
Q 3072 2584 2669 2484 
Q 3125 2378 3379 2068 
Q 3634 1759 3634 1313 
Q 3634 634 3220 271 
Q 2806 -91 2034 -91 
Q 1263 -91 848 271 
Q 434 634 434 1313 
Q 434 1759 690 2068 
Q 947 2378 1403 2484 
z
M 1172 3481 
Q 1172 3119 1398 2916 
Q 1625 2713 2034 2713 
Q 2441 2713 2670 2916 
Q 2900 3119 2900 3481 
Q 2900 3844 2670 4047 
Q 2441 4250 2034 4250 
Q 1625 4250 1398 4047 
Q 1172 3844 1172 3481 
z
" transform="scale(0.015625)"/>
       </defs>
       <use xlink:href="#DejaVuSans-30"/>
       <use xlink:href="#DejaVuSans-2e" transform="translate(63.623047 0)"/>
       <use xlink:href="#DejaVuSans-38" transform="translate(95.410156 0)"/>
      </g>
     </g>
    </g>
    <g id="xtick_6">
     <g id="line2d_11">
      <path d="M 431.714545 303.64 
L 431.714545 26.88 
" clip-path="url(#p9308cdc3f2)" style="fill: none; stroke: #b0b0b0; stroke-width: 0.8; stroke-linecap: square"/>
     </g>
     <g id="line2d_12">
      <g>
       <use xlink:href="#mdf77d7d931" x="431.714545" y="303.64" style="stroke: #000000; stroke-width: 0.8"/>
      </g>
     </g>
     <g id="text_6">
      <!-- 1.0 -->
      <g transform="translate(423.762983 318.238437) scale(0.1 -0.1)">
       <defs>
        <path id="DejaVuSans-31" d="M 794 531 
L 1825 531 
L 1825 4091 
L 703 3866 
L 703 4441 
L 1819 4666 
L 2450 4666 
L 2450 531 
L 3481 531 
L 3481 0 
L 794 0 
L 794 531 
z
" transform="scale(0.015625)"/>
       </defs>
       <use xlink:href="#DejaVuSans-31"/>
       <use xlink:href="#DejaVuSans-2e" transform="translate(63.623047 0)"/>
       <use xlink:href="#DejaVuSans-30" transform="translate(95.410156 0)"/>
      </g>
     </g>
    </g>
    <g id="text_7">
     <!-- FPR -->
     <g transform="translate(239.495156 331.916562) scale(0.1 -0.1)">
      <defs>
       <path id="DejaVuSans-46" d="M 628 4666 
L 3309 4666 
L 3309 4134 
L 1259 4134 
L 1259 2759 
L 3109 2759 
L 3109 2228 
L 1259 2228 
L 1259 0 
L 628 0 
L 628 4666 
z
" transform="scale(0.015625)"/>
       <path id="DejaVuSans-50" d="M 1259 4147 
L 1259 2394 
L 2053 2394 
Q 2494 2394 2734 2622 
Q 2975 2850 2975 3272 
Q 2975 3691 2734 3919 
Q 2494 4147 2053 4147 
L 1259 4147 
z
M 628 4666 
L 2053 4666 
Q 2838 4666 3239 4311 
Q 3641 3956 3641 3272 
Q 3641 2581 3239 2228 
Q 2838 1875 2053 1875 
L 1259 1875 
L 1259 0 
L 628 0 
L 628 4666 
z
" transform="scale(0.015625)"/>
       <path id="DejaVuSans-52" d="M 2841 2188 
Q 3044 2119 3236 1894 
Q 3428 1669 3622 1275 
L 4263 0 
L 3584 0 
L 2988 1197 
Q 2756 1666 2539 1819 
Q 2322 1972 1947 1972 
L 1259 1972 
L 1259 0 
L 628 0 
L 628 4666 
L 2053 4666 
Q 2853 4666 3247 4331 
Q 3641 3997 3641 3322 
Q 3641 2881 3436 2590 
Q 3231 2300 2841 2188 
z
M 1259 4147 
L 1259 2491 
L 2053 2491 
Q 2509 2491 2742 2702 
Q 2975 2913 2975 3322 
Q 2975 3731 2742 3939 
Q 2509 4147 2053 4147 
L 1259 4147 
z
" transform="scale(0.015625)"/>
      </defs>
      <use xlink:href="#DejaVuSans-46"/>
      <use xlink:href="#DejaVuSans-50" transform="translate(57.519531 0)"/>
      <use xlink:href="#DejaVuSans-52" transform="translate(117.822266 0)"/>
     </g>
    </g>
   </g>
   <g id="matplotlib.axis_2">
    <g id="ytick_1">
     <g id="line2d_13">
      <path d="M 47.72 291.06 
L 450 291.06 
" clip-path="url(#p9308cdc3f2)" style="fill: none; stroke: #b0b0b0; stroke-width: 0.8; stroke-linecap: square"/>
     </g>
     <g id="line2d_14">
      <defs>
       <path id="m1aa5be2f0d" d="M 0 0 
L -3.5 0 
" style="stroke: #000000; stroke-width: 0.8"/>
      </defs>
      <g>
       <use xlink:href="#m1aa5be2f0d" x="47.72" y="291.06" style="stroke: #000000; stroke-width: 0.8"/>
      </g>
     </g>
     <g id="text_8">
      <!-- 0.0 -->
      <g transform="translate(24.816875 294.859219) scale(0.1 -0.1)">
       <use xlink:href="#DejaVuSans-30"/>
       <use xlink:href="#DejaVuSans-2e" transform="translate(63.623047 0)"/>
       <use xlink:href="#DejaVuSans-30" transform="translate(95.410156 0)"/>
      </g>
     </g>
    </g>
    <g id="ytick_2">
     <g id="line2d_15">
      <path d="M 47.72 240.74 
L 450 240.74 
" clip-path="url(#p9308cdc3f2)" style="fill: none; stroke: #b0b0b0; stroke-width: 0.8; stroke-linecap: square"/>
     </g>
     <g id="line2d_16">
      <g>
       <use xlink:href="#m1aa5be2f0d" x="47.72" y="240.74" style="stroke: #000000; stroke-width: 0.8"/>
      </g>
     </g>
     <g id="text_9">
      <!-- 0.2 -->
      <g transform="translate(24.816875 244.539219) scale(0.1 -0.1)">
       <use xlink:href="#DejaVuSans-30"/>
       <use xlink:href="#DejaVuSans-2e" transform="translate(63.623047 0)"/>
       <use xlink:href="#DejaVuSans-32" transform="translate(95.410156 0)"/>
      </g>
     </g>
    </g>
    <g id="ytick_3">
     <g id="line2d_17">
      <path d="M 47.72 190.42 
L 450 190.42 
" clip-path="url(#p9308cdc3f2)" style="fill: none; stroke: #b0b0b0; stroke-width: 0.8; stroke-linecap: square"/>
     </g>
     <g id="line2d_18">
      <g>
       <use xlink:href="#m1aa5be2f0d" x="47.72" y="190.42" style="stroke: #000000; stroke-width: 0.8"/>
      </g>
     </g>
     <g id="text_10">
      <!-- 0.4 -->
      <g transform="translate(24.816875 194.219219) scale(0.1 -0.1)">
       <use xlink:href="#DejaVuSans-30"/>
       <use xlink:href="#DejaVuSans-2e" transform="translate(63.623047 0)"/>
       <use xlink:href="#DejaVuSans-34" transform="translate(95.410156 0)"/>
      </g>
     </g>
    </g>
    <g id="ytick_4">
     <g id="line2d_19">
      <path d="M 47.72 140.1 
L 450 140.1 
" clip-path="url(#p9308cdc3f2)" style="fill: none; stroke: #b0b0b0; stroke-width: 0.8; stroke-linecap: square"/>
     </g>
     <g id="line2d_20">
      <g>
       <use xlink:href="#m1aa5be2f0d" x="47.72" y="140.1" style="stroke: #000000; stroke-width: 0.8"/>
      </g>
     </g>
     <g id="text_11">
      <!-- 0.6 -->
      <g transform="translate(24.816875 143.899219) scale(0.1 -0.1)">
       <use xlink:href="#DejaVuSans-30"/>
       <use xlink:href="#DejaVuSans-2e" transform="translate(63.623047 0)"/>
       <use xlink:href="#DejaVuSans-36" transform="translate(95.410156 0)"/>
      </g>
     </g>
    </g>
    <g id="ytick_5">
     <g id="line2d_21">
      <path d="M 47.72 89.78 
L 450 89.78 
" clip-path="url(#p9308cdc3f2)" style="fill: none; stroke: #b0b0b0; stroke-width: 0.8; stroke-linecap: square"/>
     </g>
     <g id="line2d_22">
      <g>
       <use xlink:href="#m1aa5be2f0d" x="47.72" y="89.78" style="stroke: #000000; stroke-width: 0.8"/>
      </g>
     </g>
     <g id="text_12">
      <!-- 0.8 -->
      <g transform="translate(24.816875 93.579219) scale(0.1 -0.1)">
       <use xlink:href="#DejaVuSans-30"/>
       <use xlink:href="#DejaVuSans-2e" transform="translate(63.623047 0)"/>
       <use xlink:href="#DejaVuSans-38" transform="translate(95.410156 0)"/>
      </g>
     </g>
    </g>
    <g id="ytick_6">
     <g id="line2d_23">
      <path d="M 47.72 39.46 
L 450 39.46 
" clip-path="url(#p9308cdc3f2)" style="fill: none; stroke: #b0b0b0; stroke-width: 0.8; stroke-linecap: square"/>
     </g>
     <g id="line2d_24">
      <g>
       <use xlink:href="#m1aa5be2f0d" x="47.72" y="39.46" style="stroke: #000000; stroke-width: 0.8"/>
      </g>
     </g>
     <g id="text_13">
      <!-- 1.0 -->
      <g transform="translate(24.816875 43.259219) scale(0.1 -0.1)">
       <use xlink:href="#DejaVuSans-31"/>
       <use xlink:href="#DejaVuSans-2e" transform="translate(63.623047 0)"/>
       <use xlink:href="#DejaVuSans-30" transform="translate(95.410156 0)"/>
      </g>
     </g>
    </g>
    <g id="text_14">
     <!-- TPR -->
     <g transform="translate(18.737188 174.802969) rotate(-90) scale(0.1 -0.1)">
      <defs>
       <path id="DejaVuSans-54" d="M -19 4666 
L 3928 4666 
L 3928 4134 
L 2272 4134 
L 2272 0 
L 1638 0 
L 1638 4134 
L -19 4134 
L -19 4666 
z
" transform="scale(0.015625)"/>
      </defs>
      <use xlink:href="#DejaVuSans-54"/>
      <use xlink:href="#DejaVuSans-50" transform="translate(61.083984 0)"/>
      <use xlink:href="#DejaVuSans-52" transform="translate(121.386719 0)"/>
     </g>
    </g>
   </g>
   <g id="line2d_25">
    <path d="M 66.005455 291.06 
L 66.116172 229.706538 
L 66.116827 229.706538 
L 66.227544 153.096893 
L 66.234095 152.992296 
L 66.344157 148.240615 
L 66.348088 148.165903 
L 66.457495 144.1464 
L 66.46077 144.056745 
L 66.571488 139.738394 
L 66.574108 139.663682 
L 66.684825 136.749916 
L 66.689411 136.675204 
L 66.800128 134.0304 
L 66.808645 133.940746 
L 66.918052 132.267198 
L 66.927879 132.162601 
L 67.037286 131.251115 
L 67.053009 131.146519 
L 67.163726 129.951127 
L 67.172898 129.84653 
L 67.283615 128.456888 
L 67.294097 128.352291 
L 67.403504 127.201727 
L 67.422503 127.09713 
L 67.531909 126.021278 
L 67.546322 125.931624 
L 67.655729 123.122454 
L 67.66097 123.047742 
L 67.771032 118.550082 
L 67.774308 118.460428 
L 67.885025 111.766236 
L 67.889611 111.691524 
L 68.000328 109.091548 
L 68.004914 108.986951 
L 68.115631 106.431802 
L 68.119562 106.372032 
L 68.229624 104.758254 
L 68.240761 104.653657 
L 68.348202 104.115731 
L 68.375063 104.026077 
L 68.480539 103.458266 
L 68.502158 103.353669 
L 68.61091 102.681261 
L 68.631874 102.576665 
L 68.726213 101.964027 
L 68.768796 101.85943 
L 68.878858 101.381273 
L 68.925373 101.276677 
L 69.024297 100.693923 
L 69.060985 100.589327 
L 69.171047 100.260594 
L 69.21101 100.155997 
L 69.319106 99.901976 
L 69.357104 99.79738 
L 69.467821 99.378993 
L 69.533989 99.289338 
L 69.6375 98.900836 
L 69.66436 98.796239 
L 69.775077 98.572104 
L 69.841901 98.467507 
L 69.947377 98.213486 
L 70.005683 98.108889 
L 70.1164 97.869811 
L 70.152433 97.765214 
L 70.246771 97.556021 
L 70.308354 97.451424 
L 70.418416 97.257173 
L 70.493101 97.152576 
L 70.577613 96.98821 
L 70.649022 96.883613 
L 70.752532 96.584765 
L 70.859319 96.480169 
L 70.968726 96.315802 
L 71.077477 96.211206 
L 71.184919 96.091666 
L 71.248466 95.98707 
L 71.355253 95.837646 
L 71.537379 95.733049 
L 71.645476 95.583625 
L 71.706403 95.479028 
L 71.780433 95.284777 
L 71.89115 95.180181 
L 71.99335 95.090526 
L 72.100137 94.985929 
L 72.178752 94.836506 
L 72.34319 94.731909 
L 72.451287 94.597427 
L 72.505663 94.492831 
L 72.597381 94.358349 
L 72.715304 94.253752 
L 72.824711 94.059501 
L 72.954427 93.954904 
L 73.040249 93.80548 
L 73.203377 93.700884 
L 73.29313 93.581345 
L 73.464774 93.476748 
L 73.570905 93.312382 
L 73.711103 93.207785 
L 73.797581 92.998591 
L 73.889299 92.893995 
L 73.9725 92.774455 
L 74.190659 92.669859 
L 74.255517 92.565262 
L 74.435023 92.460665 
L 74.543775 92.311241 
L 74.625666 92.206644 
L 74.731797 92.087105 
L 74.800586 91.982509 
L 74.909993 91.848027 
L 75.027261 91.74343 
L 75.127496 91.653776 
L 75.392169 91.549179 
L 75.502886 91.42964 
L 75.590674 91.325043 
L 75.672565 91.220447 
L 75.783937 91.11585 
L 75.880241 91.026196 
L 75.99882 90.921599 
L 76.092504 90.80206 
L 76.262838 90.697463 
L 76.3729 90.607809 
L 76.498685 90.503212 
L 76.595644 90.4285 
L 76.790873 90.323903 
L 76.893074 90.264134 
L 77.067994 90.159537 
L 77.159057 90.069882 
L 77.45059 89.965286 
L 77.533792 89.860689 
L 77.764398 89.756092 
L 77.844979 89.666438 
L 78.17713 89.561841 
L 78.262952 89.487129 
L 78.646859 89.382532 
L 78.753645 89.30782 
L 79.005215 89.203224 
L 79.10414 89.098627 
L 79.271198 88.99403 
L 79.371434 88.934261 
L 79.626935 88.829664 
L 79.670828 88.799779 
L 79.733721 88.799779 
L 79.998394 88.695182 
L 80.071768 88.62047 
L 80.349544 88.515874 
L 80.448469 88.456104 
L 80.636491 88.351507 
L 80.72952 88.231968 
L 81.159941 88.127371 
L 81.226109 88.097487 
L 81.595603 87.99289 
L 81.697803 87.918178 
L 81.705009 87.918178 
L 81.842587 87.813581 
L 81.913341 87.753812 
L 82.212081 87.649215 
L 82.244182 87.604388 
L 82.303144 87.604388 
L 82.733565 87.499791 
L 82.83511 87.454964 
L 83.336285 87.350367 
L 83.445037 87.275655 
L 83.653369 87.171058 
L 83.697262 87.111289 
L 84.098202 87.006692 
L 84.193196 86.976807 
L 84.621652 86.87221 
L 84.729093 86.842326 
L 85.187685 86.737729 
L 85.295781 86.692902 
L 85.643001 86.588305 
L 85.749132 86.55842 
L 86.152037 86.453823 
L 86.18938 86.408996 
L 86.724622 86.3044 
L 86.793411 86.24463 
L 87.635909 86.140033 
L 87.736144 86.110148 
L 88.131843 86.005552 
L 88.131843 85.990609 
L 88.454167 85.886013 
L 88.454167 85.87107 
L 89.312389 85.766473 
L 89.312389 85.751531 
L 90.121475 85.646934 
L 90.175851 85.602107 
L 91.119239 85.49751 
L 91.19982 85.452683 
L 91.775025 85.348086 
L 91.868709 85.303259 
L 92.52646 85.198663 
L 92.59787 85.168778 
L 92.992258 85.064181 
L 92.992258 85.049239 
L 94.073224 84.944642 
L 94.135462 84.914757 
L 94.832521 84.81016 
L 94.841693 84.780276 
L 96.196503 84.675679 
L 96.196503 84.660736 
L 96.263327 84.660736 
L 97.208025 84.55614 
L 97.208025 84.541197 
L 98.863541 84.436601 
L 98.96181 84.406716 
L 101.08771 84.302119 
L 101.08771 84.287177 
L 101.183359 84.287177 
L 103.342015 84.18258 
L 103.342015 84.167637 
L 103.427182 84.167637 
L 105.560288 84.063041 
L 105.650696 84.018214 
L 106.741489 83.913617 
L 106.741489 83.898674 
L 106.744764 83.898674 
L 108.313148 83.794078 
L 108.313148 83.779135 
L 108.369489 83.779135 
L 110.720098 83.674539 
L 110.720098 83.659596 
L 110.767923 83.659596 
L 113.934825 83.554999 
L 113.934825 83.540057 
L 113.999028 83.540057 
L 141.949529 83.43546 
L 141.949529 83.420518 
L 171.243704 83.315921 
L 171.243704 83.300979 
L 174.620903 83.196382 
L 174.717207 83.166497 
L 175.137801 83.0619 
L 175.170558 83.032016 
L 176.015677 82.927419 
L 176.084465 82.882592 
L 176.991822 82.777995 
L 176.991822 82.763053 
L 177.075023 82.763053 
L 177.516581 82.658456 
L 177.516581 82.643513 
L 177.587991 82.643513 
L 178.65913 82.538917 
L 178.65913 82.523974 
L 178.766571 82.523974 
L 179.202233 82.419378 
L 179.310985 82.389493 
L 181.076562 82.284896 
L 181.076562 82.269954 
L 181.138145 82.269954 
L 181.869926 82.165357 
L 181.949852 82.12053 
L 181.969506 82.12053 
L 182.422201 82.015933 
L 182.495576 81.986048 
L 182.521781 81.986048 
L 183.1435 81.881451 
L 183.252907 81.836624 
L 184.145195 81.732028 
L 184.145195 81.717085 
L 184.238879 81.717085 
L 185.150821 81.612488 
L 185.238608 81.582604 
L 185.24647 81.582604 
L 185.927151 81.478007 
L 186.009697 81.448122 
L 186.730996 81.343525 
L 186.79782 81.298698 
L 187.865028 81.194101 
L 187.963953 81.134332 
L 188.70163 81.029735 
L 188.75273 80.984908 
L 188.804485 80.984908 
L 189.662052 80.880311 
L 189.759666 80.835484 
L 189.766217 80.835484 
L 190.612646 80.730887 
L 190.695848 80.701002 
L 190.706985 80.701002 
L 191.269088 80.611348 
L 191.271708 80.566521 
L 191.351634 80.566521 
L 192.114206 80.461924 
L 192.211166 80.402155 
L 192.224923 80.402155 
L 192.841402 80.297558 
L 192.93574 80.267673 
L 192.952119 80.267673 
L 193.41071 80.163076 
L 193.41071 80.148134 
L 193.492602 80.148134 
L 194.049463 80.043537 
L 194.049463 80.028595 
L 194.120217 80.028595 
L 194.398647 79.923998 
L 194.477263 79.894113 
L 194.505434 79.894113 
L 194.844792 79.789517 
L 194.895892 79.759632 
L 194.945027 79.759632 
L 195.374137 79.655035 
L 195.482889 79.595265 
L 195.484199 79.595265 
L 196.218601 79.490669 
L 196.266425 79.460784 
L 196.305733 79.460784 
L 196.682434 79.356187 
L 196.754498 79.296418 
L 196.775462 79.296418 
L 197.283844 79.191821 
L 197.372286 79.132051 
L 197.389975 79.132051 
L 197.754228 79.027455 
L 197.830878 78.982627 
L 197.857083 78.982627 
L 198.235094 78.878031 
L 198.281608 78.818261 
L 198.341225 78.818261 
L 198.632758 78.713664 
L 198.677307 78.668837 
L 198.743475 78.668837 
L 199.071696 78.56424 
L 199.179137 78.519413 
L 199.44512 78.414816 
L 199.531597 78.369989 
L 199.555837 78.369989 
L 199.755652 78.265393 
L 199.860473 78.235508 
L 199.865059 78.235508 
L 200.207692 78.130911 
L 200.298756 78.056199 
L 200.31841 78.056199 
L 200.573911 77.951602 
L 200.684628 77.906775 
L 200.985333 77.802178 
L 201.045605 77.757351 
L 201.069845 77.757351 
L 201.408547 77.652754 
L 201.44982 77.607927 
L 201.518609 77.607927 
L 202.005371 77.503331 
L 202.105606 77.443561 
L 202.114778 77.443561 
L 202.642159 77.338964 
L 202.655261 77.294137 
L 202.731912 77.294137 
L 203.210157 77.18954 
L 203.210157 77.174598 
L 203.313013 77.174598 
L 203.70085 77.070001 
L 203.77488 77.010232 
L 203.796499 77.010232 
L 204.115548 76.905635 
L 204.217748 76.830923 
L 204.220369 76.830923 
L 204.522384 76.726326 
L 204.580691 76.696441 
L 204.631136 76.696441 
L 205.043868 76.591845 
L 205.142793 76.547017 
L 205.48084 76.442421 
L 205.572559 76.367709 
L 205.590247 76.367709 
L 205.767788 76.263112 
L 205.847714 76.203342 
L 205.873919 76.203342 
L 206.444538 76.098746 
L 206.484501 76.024034 
L 206.535601 76.024034 
L 206.777999 75.919437 
L 206.871028 75.844725 
L 206.888061 75.844725 
L 207.460646 75.740128 
L 207.460646 75.725186 
L 207.562846 75.725186 
L 207.90548 75.620589 
L 207.95789 75.590704 
L 208.005715 75.590704 
L 208.427619 75.486108 
L 208.443342 75.456223 
L 208.533095 75.456223 
L 209.325803 75.351626 
L 209.431934 75.321741 
L 209.954729 75.217145 
L 209.967176 75.18726 
L 210.037275 75.18726 
L 210.507004 75.082663 
L 210.61379 74.993009 
L 210.908599 74.888412 
L 211.01342 74.843585 
L 211.019316 74.843585 
L 211.517871 74.738988 
L 211.616796 74.664276 
L 211.624657 74.664276 
L 212.229998 74.559679 
L 212.336129 74.455083 
L 212.33875 74.455083 
L 213.098702 74.350486 
L 213.158974 74.275774 
L 213.191075 74.275774 
L 213.6156 74.171177 
L 213.6156 74.156235 
L 213.726317 74.156235 
L 214.078122 74.051638 
L 214.139704 74.021753 
L 214.188839 74.021753 
L 214.534748 73.917156 
L 214.534748 73.902214 
L 214.64219 73.902214 
L 215.035923 73.797617 
L 215.110608 73.75279 
L 215.146641 73.75279 
L 215.852872 73.648193 
L 215.921005 73.618309 
L 215.963589 73.618309 
L 216.576791 73.513712 
L 216.64689 73.483827 
L 216.687508 73.483827 
L 217.170995 73.37923 
L 217.227991 73.349346 
L 217.281057 73.349346 
L 217.631552 73.244749 
L 217.67479 73.184979 
L 217.742269 73.184979 
L 218.358092 73.080382 
L 218.469464 73.050498 
L 218.790478 72.945901 
L 218.8763 72.886131 
L 218.896609 72.886131 
L 219.263483 72.781535 
L 219.370924 72.706823 
L 220.032606 72.602226 
L 220.032606 72.587284 
L 220.138082 72.587284 
L 220.65236 72.482687 
L 220.749319 72.43786 
L 220.762422 72.43786 
L 221.005475 72.333263 
L 221.114882 72.303378 
L 221.467998 72.198781 
L 221.545303 72.109127 
L 221.569543 72.109127 
L 221.83094 72.00453 
L 221.83094 71.989588 
L 221.941657 71.989588 
L 222.718643 71.884991 
L 222.816912 71.825222 
L 222.82936 71.825222 
L 223.350189 71.720625 
L 223.350189 71.705682 
L 223.459595 71.705682 
L 223.888706 71.601086 
L 223.95684 71.571201 
L 223.994837 71.571201 
L 224.463911 71.466604 
L 224.56087 71.391892 
L 224.999808 71.287295 
L 225.049598 71.257411 
L 225.100698 71.257411 
L 225.791206 71.152814 
L 225.901268 71.093044 
L 226.118771 70.988448 
L 226.226868 70.958563 
L 226.71232 70.853966 
L 226.825658 70.794196 
L 227.608539 70.6896 
L 227.719911 70.659715 
L 228.113645 70.555118 
L 228.221741 70.495349 
L 228.540135 70.390752 
L 228.61351 70.330982 
L 228.647576 70.330982 
L 229.729197 70.226386 
L 229.751472 70.181558 
L 229.839259 70.181558 
L 230.163549 70.076962 
L 230.163549 70.062019 
L 230.26968 70.062019 
L 231.026356 69.957422 
L 231.123316 69.912595 
L 231.133798 69.912595 
L 231.539324 69.807999 
L 231.648731 69.718344 
L 231.927816 69.613747 
L 232.019535 69.56892 
L 232.037223 69.56892 
L 232.492539 69.464324 
L 232.590809 69.434439 
L 233.254456 69.329842 
L 233.362553 69.240188 
L 234.113988 69.135591 
L 234.213568 69.090764 
L 234.936177 68.986167 
L 235.014793 68.956282 
L 235.044929 68.956282 
L 235.504831 68.851685 
L 235.555276 68.791916 
L 235.614238 68.791916 
L 236.108861 68.687319 
L 236.211062 68.657434 
L 236.7011 68.552838 
L 236.7011 68.537895 
L 236.803955 68.537895 
L 237.489222 68.433298 
L 237.573734 68.403414 
L 237.583561 68.403414 
L 238.193488 68.298817 
L 238.305515 68.268932 
L 239.18208 68.164335 
L 239.18208 68.149393 
L 239.292142 68.149393 
L 239.828039 68.044796 
L 239.940066 68.014912 
L 240.364591 67.910315 
L 240.473343 67.88043 
L 241.422627 67.775833 
L 241.501898 67.745948 
L 241.532034 67.745948 
L 242.079068 67.641352 
L 242.079068 67.626409 
L 242.185855 67.626409 
L 242.964805 67.521813 
L 243.023767 67.491928 
L 243.075522 67.491928 
L 243.748997 67.387331 
L 243.859714 67.357446 
L 244.248862 67.25285 
L 244.248862 67.237907 
L 244.359579 67.237907 
L 245.351447 67.13331 
L 245.463474 67.103426 
L 246.2457 66.998829 
L 246.360348 66.939059 
L 247.152402 66.834463 
L 247.152402 66.81952 
L 247.262463 66.81952 
L 247.813429 66.714923 
L 247.859288 66.685039 
L 247.916284 66.685039 
L 248.739783 66.580442 
L 248.851156 66.565499 
L 249.300575 66.460903 
L 249.411293 66.386191 
L 250.171899 66.281594 
L 250.283272 66.266652 
L 250.665213 66.162055 
L 250.77593 66.147112 
L 251.883756 66.042516 
L 251.928305 66.012631 
L 251.987922 66.012631 
L 252.634536 65.908034 
L 252.734116 65.863207 
L 252.743288 65.863207 
L 253.202535 65.75861 
L 253.308011 65.698841 
L 254.013587 65.594244 
L 254.013587 65.579302 
L 254.122338 65.579302 
L 254.594688 65.474705 
L 254.651029 65.44482 
L 254.704094 65.44482 
L 255.410981 65.340223 
L 255.521698 65.310339 
L 255.997323 65.205742 
L 256.110005 65.160915 
L 256.80772 65.056318 
L 256.86144 65.026433 
L 256.917126 65.026433 
L 257.724248 64.921836 
L 257.724248 64.906894 
L 257.831689 64.906894 
L 258.338105 64.802297 
L 258.446857 64.75747 
L 259.346351 64.652873 
L 259.346351 64.637931 
L 259.456413 64.637931 
L 260.219641 64.533334 
L 260.28843 64.488507 
L 260.329703 64.488507 
L 261.628827 64.38391 
L 261.69434 64.339083 
L 261.739544 64.339083 
L 262.566319 64.234486 
L 262.676381 64.189659 
L 263.192624 64.085062 
L 263.222105 64.055178 
L 263.302031 64.055178 
L 264.207422 63.950581 
L 264.319449 63.920696 
L 265.714223 63.816099 
L 265.788253 63.771272 
L 265.821664 63.771272 
L 266.641233 63.666675 
L 266.751295 63.606906 
L 267.164028 63.502309 
L 267.214473 63.472424 
L 267.273434 63.472424 
L 267.855191 63.367828 
L 267.961977 63.352885 
L 269.472053 63.248288 
L 269.578185 63.218404 
L 270.352549 63.113807 
L 270.385961 63.083922 
L 270.462611 63.083922 
L 271.148533 62.979325 
L 271.176704 62.934498 
L 271.258595 62.934498 
L 272.742466 62.829901 
L 272.742466 62.814959 
L 272.851873 62.814959 
L 274.556524 62.710362 
L 274.642346 62.665535 
L 274.66331 62.665535 
L 275.223447 62.560938 
L 275.324337 62.486226 
L 275.333509 62.486226 
L 276.215315 62.38163 
L 276.28869 62.351745 
L 276.324722 62.351745 
L 277.182943 62.247148 
L 277.291695 62.232206 
L 278.536443 62.127609 
L 278.536443 62.112667 
L 278.64716 62.112667 
L 279.474591 62.00807 
L 279.474591 61.993127 
L 279.585308 61.993127 
L 280.634172 61.888531 
L 280.746855 61.858646 
L 281.938538 61.754049 
L 281.996844 61.724164 
L 282.044669 61.724164 
L 282.726005 61.619568 
L 282.736487 61.559798 
L 282.836722 61.559798 
L 283.925549 61.455201 
L 284.036922 61.395432 
L 284.941002 61.290835 
L 284.941002 61.275893 
L 285.051064 61.275893 
L 285.651819 61.171296 
L 285.701609 61.141411 
L 285.761226 61.141411 
L 286.989596 61.036814 
L 286.989596 61.021872 
L 287.095728 61.021872 
L 288.191761 60.917275 
L 288.250723 60.88739 
L 288.301168 60.88739 
L 289.144322 60.782794 
L 289.254384 60.752909 
L 290.3609 60.648312 
L 290.444756 60.603485 
L 290.471617 60.603485 
L 291.876217 60.498888 
L 291.876217 60.483946 
L 291.985624 60.483946 
L 292.313189 60.379349 
L 292.427182 60.364407 
L 293.432808 60.25981 
L 293.51863 60.214983 
L 293.537629 60.214983 
L 294.328372 60.110386 
L 294.328372 60.095444 
L 294.437123 60.095444 
L 295.324826 59.990847 
L 295.324826 59.975905 
L 295.435543 59.975905 
L 296.919414 59.871308 
L 296.919414 59.856365 
L 297.025545 59.856365 
L 298.561172 59.751769 
L 298.62603 59.721884 
L 298.671889 59.721884 
L 299.367638 59.617287 
L 299.367638 59.602345 
L 299.477045 59.602345 
L 300.408641 59.497748 
L 300.443363 59.467863 
L 300.518703 59.467863 
L 301.80669 59.363266 
L 301.916752 59.303497 
L 303.538201 59.1989 
L 303.648918 59.183958 
L 304.684025 59.079361 
L 304.727263 59.049476 
L 304.794742 59.049476 
L 304.906114 59.019591 
L 306.108279 58.914995 
L 306.217031 58.855225 
L 306.853163 58.750628 
L 306.853163 58.735686 
L 306.96388 58.735686 
L 307.684524 58.631089 
L 307.706143 58.601204 
L 307.795241 58.601204 
L 308.443165 58.496608 
L 308.535539 58.436838 
L 308.551917 58.436838 
L 308.811349 58.332241 
L 308.851967 58.302357 
L 308.918135 58.302357 
L 310.433453 58.19776 
L 310.536963 58.182817 
L 312.037868 58.078221 
L 312.134827 58.033394 
L 312.147275 58.033394 
L 313.314063 57.928797 
L 313.375645 57.88397 
L 313.420849 57.88397 
L 314.87786 57.779373 
L 314.87786 57.76443 
L 314.982026 57.76443 
L 315.915587 57.659834 
L 315.915587 57.644891 
L 316.013202 57.644891 
L 316.925799 57.540295 
L 317.020138 57.51041 
L 317.035861 57.51041 
L 318.33171 57.405813 
L 318.406395 57.375928 
L 318.442427 57.375928 
L 319.1349 57.271332 
L 319.178139 57.241447 
L 319.244962 57.241447 
L 320.521812 57.13685 
L 320.622047 57.106965 
L 320.627288 57.106965 
L 321.96572 57.002368 
L 322.072507 56.972484 
L 322.66409 56.867887 
L 322.66409 56.852945 
L 322.767601 56.852945 
L 323.817775 56.748348 
L 323.929148 56.733405 
L 324.576417 56.628809 
L 324.576417 56.613866 
L 324.687134 56.613866 
L 325.824441 56.50927 
L 325.931227 56.464442 
L 326.982712 56.359846 
L 327.009573 56.329961 
L 327.092774 56.329961 
L 327.54678 56.225364 
L 327.54678 56.210422 
L 327.655532 56.210422 
L 328.311973 56.105825 
L 328.311973 56.090883 
L 328.418104 56.090883 
L 329.282221 55.986286 
L 329.312357 55.956401 
L 329.368699 55.956401 
L 330.014658 55.851804 
L 330.123409 55.806977 
L 330.490283 55.70238 
L 330.599034 55.657553 
L 330.59969 55.657553 
L 330.851915 55.552956 
L 330.851915 55.538014 
L 330.956736 55.538014 
L 331.955155 55.433417 
L 332.063907 55.373648 
L 332.460261 55.269051 
L 332.521188 55.239166 
L 332.566392 55.239166 
L 333.036121 55.134569 
L 333.036121 55.119627 
L 333.142252 55.119627 
L 333.714181 55.01503 
L 333.806555 54.985146 
L 333.810486 54.985146 
L 334.197013 54.880549 
L 334.197013 54.865606 
L 334.278904 54.865606 
L 334.649053 54.76101 
L 334.700808 54.716182 
L 334.741427 54.716182 
L 335.344802 54.611586 
L 335.450933 54.521931 
L 335.815841 54.417335 
L 335.893147 54.357565 
L 335.926558 54.357565 
L 336.299328 54.252968 
L 336.332084 54.193199 
L 336.376633 54.193199 
L 336.640651 54.088602 
L 336.73892 54.043775 
L 336.740886 54.043775 
L 337.033074 53.939178 
L 337.099242 53.894351 
L 337.143136 53.894351 
L 337.587315 53.789754 
L 337.587315 53.774812 
L 337.653483 53.774812 
L 338.148762 53.670215 
L 338.180863 53.625388 
L 338.256859 53.625388 
L 338.746896 53.520791 
L 338.787515 53.461021 
L 338.825512 53.461021 
L 339.056773 53.356425 
L 339.112459 53.311598 
L 339.166835 53.311598 
L 339.417095 53.207001 
L 339.457058 53.177116 
L 339.526502 53.177116 
L 339.752522 53.072519 
L 339.831138 53.042635 
L 339.861929 53.042635 
L 340.370311 52.938038 
L 340.466615 52.923095 
L 340.79549 52.818499 
L 340.890484 52.788614 
L 341.34187 52.684017 
L 341.455862 52.57942 
L 341.665504 52.474824 
L 341.753292 52.415054 
L 341.759188 52.415054 
L 342.034343 52.310457 
L 342.126061 52.26563 
L 342.129337 52.26563 
L 342.673095 52.161033 
L 342.774641 52.101264 
L 342.779227 52.101264 
L 342.980352 51.996667 
L 343.017694 51.966782 
L 343.085828 51.966782 
L 343.597485 51.862186 
L 343.702961 51.802416 
L 343.857572 51.697819 
L 343.859537 51.667934 
L 343.964358 51.667934 
L 344.318129 51.563338 
L 344.388228 51.503568 
L 344.426881 51.503568 
L 344.812753 51.398971 
L 344.874335 51.369087 
L 344.910367 51.369087 
L 345.12656 51.26449 
L 345.19928 51.20472 
L 345.216968 51.20472 
L 345.97561 51.100124 
L 346.064708 51.040354 
L 346.683151 50.935757 
L 346.772249 50.905872 
L 346.786662 50.905872 
L 346.966168 50.801276 
L 346.981891 50.771391 
L 347.059851 50.771391 
L 347.339592 50.666794 
L 347.445723 50.607025 
L 347.450309 50.607025 
L 347.660606 50.502428 
L 347.711707 50.442658 
L 347.770668 50.442658 
L 347.988172 50.338062 
L 348.0812 50.293234 
L 348.091027 50.293234 
L 348.607925 50.188638 
L 348.628235 50.158753 
L 348.718643 50.158753 
L 349.10517 50.054156 
L 349.12941 50.024271 
L 349.212611 50.024271 
L 349.70527 49.919675 
L 349.817297 49.83002 
L 350.319127 49.725423 
L 350.391847 49.680596 
L 350.423293 49.680596 
L 350.745617 49.576 
L 350.745617 49.561057 
L 350.855024 49.561057 
L 351.201588 49.45646 
L 351.201588 49.441518 
L 351.30903 49.441518 
L 352.076188 49.336921 
L 352.11222 49.307036 
L 352.186905 49.307036 
L 352.365756 49.20244 
L 352.450923 49.157613 
L 352.719526 49.053016 
L 352.826313 48.993246 
L 352.828933 48.993246 
L 353.468996 48.888649 
L 353.542371 48.843822 
L 353.579713 48.843822 
L 354.244671 48.739226 
L 354.273497 48.694398 
L 354.352112 48.694398 
L 354.532929 48.589802 
L 354.580753 48.559917 
L 354.635129 48.559917 
L 355.319086 48.45532 
L 355.38984 48.395551 
L 355.429803 48.395551 
L 355.801262 48.290954 
L 355.913944 48.261069 
L 356.472771 48.156472 
L 356.472771 48.14153 
L 356.577592 48.14153 
L 357.248446 48.036933 
L 357.359163 48.007048 
L 358.387718 47.902452 
L 358.432922 47.872567 
L 358.489919 47.872567 
L 359.487683 47.76797 
L 359.59578 47.753028 
L 360.545719 47.648431 
L 360.636782 47.573719 
L 360.648575 47.573719 
L 361.313533 47.469122 
L 361.40001 47.409353 
L 361.740023 47.304756 
L 361.850085 47.274871 
L 362.748269 47.170274 
L 362.85309 47.14039 
L 363.198344 47.035793 
L 363.265822 46.946138 
L 363.307751 46.946138 
L 364.643563 46.841542 
L 364.75428 46.826599 
L 365.767112 46.722003 
L 365.800524 46.692118 
L 365.875864 46.692118 
L 366.382935 46.587521 
L 366.382935 46.572579 
L 366.486446 46.572579 
L 367.288981 46.467982 
L 367.317807 46.438097 
L 367.399043 46.438097 
L 368.151133 46.3335 
L 368.151133 46.318558 
L 368.253988 46.318558 
L 368.941876 46.213961 
L 369.044076 46.199019 
L 370.051667 46.094422 
L 370.16304 46.064537 
L 371.187664 45.959941 
L 371.18963 45.930056 
L 371.274797 45.930056 
L 372.260113 45.825459 
L 372.355107 45.795574 
L 373.21857 45.690978 
L 373.305702 45.64615 
L 373.309633 45.64615 
L 373.975901 45.541554 
L 374.061723 45.496726 
L 374.083998 45.496726 
L 374.891119 45.39213 
L 374.891119 45.377187 
L 374.99987 45.377187 
L 376.39792 45.272591 
L 376.489638 45.227763 
L 376.49881 45.227763 
L 377.364238 45.123167 
L 377.408131 45.078339 
L 377.453335 45.078339 
L 378.25325 44.973743 
L 378.337107 44.943858 
L 378.362657 44.943858 
L 379.55303 44.839261 
L 379.659161 44.824319 
L 380.596653 44.719722 
L 380.632685 44.689837 
L 380.70737 44.689837 
L 381.988151 44.585241 
L 382.0838 44.540413 
L 382.097558 44.540413 
L 383.069117 44.435817 
L 383.069117 44.420874 
L 383.176558 44.420874 
L 384.814385 44.316277 
L 384.912 44.256508 
L 384.921172 44.256508 
L 385.755808 44.151911 
L 385.755808 44.136969 
L 385.860629 44.136969 
L 386.933733 44.032372 
L 386.933733 44.01743 
L 387.044451 44.01743 
L 388.566319 43.912833 
L 388.661313 43.882948 
L 388.677037 43.882948 
L 389.238484 43.778351 
L 389.238484 43.763409 
L 389.340684 43.763409 
L 390.783937 43.658812 
L 390.890068 43.628927 
L 392.806981 43.524331 
L 392.916388 43.494446 
L 396.247728 43.389849 
L 396.359101 43.359964 
L 398.022478 43.255368 
L 398.022478 43.240425 
L 398.129919 43.240425 
L 399.624928 43.135828 
L 399.639996 43.105944 
L 399.690441 43.105944 
L 400.855919 43.001347 
L 400.919466 42.971462 
L 400.96336 42.971462 
L 401.932298 42.866865 
L 401.932298 42.851923 
L 402.008949 42.851923 
L 403.11481 42.747326 
L 403.11481 42.732384 
L 403.14167 42.732384 
L 404.678607 42.627787 
L 404.761153 42.597902 
L 405.604307 42.493306 
L 405.703887 42.433536 
L 406.341984 42.328939 
L 406.452046 42.26917 
L 406.741614 42.164573 
L 406.780267 42.119746 
L 406.79992 42.119746 
L 407.09997 42.015149 
L 407.174 41.970322 
L 407.585422 41.865725 
L 407.646349 41.820898 
L 407.657487 41.820898 
L 408.184867 41.716301 
L 408.260862 41.671474 
L 408.914028 41.566877 
L 408.991988 41.52205 
L 408.995264 41.52205 
L 409.537712 41.417453 
L 409.609777 41.372626 
L 409.618293 41.372626 
L 410.161397 41.268029 
L 410.243943 41.238145 
L 410.257046 41.238145 
L 411.093648 41.133548 
L 411.161781 41.103663 
L 411.776294 40.999066 
L 411.809706 40.954239 
L 411.875874 40.954239 
L 412.162166 40.849642 
L 412.195578 40.819758 
L 412.225059 40.819758 
L 413.023008 40.715161 
L 413.023008 40.700219 
L 413.13307 40.700219 
L 414.341131 40.595622 
L 414.38306 40.565737 
L 414.440056 40.565737 
L 415.056534 40.46114 
L 415.158735 40.401371 
L 415.895757 40.296774 
L 416.007784 40.266889 
L 416.908589 40.162292 
L 416.908589 40.14735 
L 417.01472 40.14735 
L 417.84215 40.042753 
L 417.84215 40.027811 
L 417.950247 40.027811 
L 420.948781 39.923214 
L 420.948781 39.908272 
L 421.059498 39.908272 
L 423.594199 39.803675 
L 423.653816 39.77379 
L 423.702296 39.77379 
L 428.367482 39.669193 
L 428.448718 39.639309 
L 430.207089 39.534712 
L 430.207089 39.51977 
L 430.296187 39.51977 
L 431.714545 39.46 
L 431.714545 39.46 
" clip-path="url(#p9308cdc3f2)" style="fill: none; stroke: #1f77b4; stroke-width: 2; stroke-linecap: square"/>
   </g>
   <g id="line2d_26">
    <path d="M 66.005455 291.06 
L 431.714545 39.46 
" clip-path="url(#p9308cdc3f2)" style="fill: none; stroke-dasharray: 3.7,1.6; stroke-dashoffset: 0; stroke: #ff7f0e"/>
   </g>
   <g id="patch_3">
    <path d="M 47.72 303.64 
L 47.72 26.88 
" style="fill: none; stroke: #000000; stroke-width: 0.8; stroke-linejoin: miter; stroke-linecap: square"/>
   </g>
   <g id="patch_4">
    <path d="M 450 303.64 
L 450 26.88 
" style="fill: none; stroke: #000000; stroke-width: 0.8; stroke-linejoin: miter; stroke-linecap: square"/>
   </g>
   <g id="patch_5">
    <path d="M 47.72 303.64 
L 450 303.64 
" style="fill: none; stroke: #000000; stroke-width: 0.8; stroke-linejoin: miter; stroke-linecap: square"/>
   </g>
   <g id="patch_6">
    <path d="M 47.72 26.88 
L 450 26.88 
" style="fill: none; stroke: #000000; stroke-width: 0.8; stroke-linejoin: miter; stroke-linecap: square"/>
   </g>
   <g id="text_15">
    <!-- ROC — block-level -->
    <g transform="translate(193.610312 20.88) scale(0.12 -0.12)">
     <defs>
      <path id="DejaVuSans-4f" d="M 2522 4238 
Q 1834 4238 1429 3725 
Q 1025 3213 1025 2328 
Q 1025 1447 1429 934 
Q 1834 422 2522 422 
Q 3209 422 3611 934 
Q 4013 1447 4013 2328 
Q 4013 3213 3611 3725 
Q 3209 4238 2522 4238 
z
M 2522 4750 
Q 3503 4750 4090 4092 
Q 4678 3434 4678 2328 
Q 4678 1225 4090 567 
Q 3503 -91 2522 -91 
Q 1538 -91 948 565 
Q 359 1222 359 2328 
Q 359 3434 948 4092 
Q 1538 4750 2522 4750 
z
" transform="scale(0.015625)"/>
      <path id="DejaVuSans-43" d="M 4122 4306 
L 4122 3641 
Q 3803 3938 3442 4084 
Q 3081 4231 2675 4231 
Q 1875 4231 1450 3742 
Q 1025 3253 1025 2328 
Q 1025 1406 1450 917 
Q 1875 428 2675 428 
Q 3081 428 3442 575 
Q 3803 722 4122 1019 
L 4122 359 
Q 3791 134 3420 21 
Q 3050 -91 2638 -91 
Q 1578 -91 968 557 
Q 359 1206 359 2328 
Q 359 3453 968 4101 
Q 1578 4750 2638 4750 
Q 3056 4750 3426 4639 
Q 3797 4528 4122 4306 
z
" transform="scale(0.015625)"/>
      <path id="DejaVuSans-20" transform="scale(0.015625)"/>
      <path id="DejaVuSans-2014" d="M 313 1978 
L 6088 1978 
L 6088 1528 
L 313 1528 
L 313 1978 
z
" transform="scale(0.015625)"/>
      <path id="DejaVuSans-62" d="M 3116 1747 
Q 3116 2381 2855 2742 
Q 2594 3103 2138 3103 
Q 1681 3103 1420 2742 
Q 1159 2381 1159 1747 
Q 1159 1113 1420 752 
Q 1681 391 2138 391 
Q 2594 391 2855 752 
Q 3116 1113 3116 1747 
z
M 1159 2969 
Q 1341 3281 1617 3432 
Q 1894 3584 2278 3584 
Q 2916 3584 3314 3078 
Q 3713 2572 3713 1747 
Q 3713 922 3314 415 
Q 2916 -91 2278 -91 
Q 1894 -91 1617 61 
Q 1341 213 1159 525 
L 1159 0 
L 581 0 
L 581 4863 
L 1159 4863 
L 1159 2969 
z
" transform="scale(0.015625)"/>
      <path id="DejaVuSans-6c" d="M 603 4863 
L 1178 4863 
L 1178 0 
L 603 0 
L 603 4863 
z
" transform="scale(0.015625)"/>
      <path id="DejaVuSans-6f" d="M 1959 3097 
Q 1497 3097 1228 2736 
Q 959 2375 959 1747 
Q 959 1119 1226 758 
Q 1494 397 1959 397 
Q 2419 397 2687 759 
Q 2956 1122 2956 1747 
Q 2956 2369 2687 2733 
Q 2419 3097 1959 3097 
z
M 1959 3584 
Q 2709 3584 3137 3096 
Q 3566 2609 3566 1747 
Q 3566 888 3137 398 
Q 2709 -91 1959 -91 
Q 1206 -91 779 398 
Q 353 888 353 1747 
Q 353 2609 779 3096 
Q 1206 3584 1959 3584 
z
" transform="scale(0.015625)"/>
      <path id="DejaVuSans-63" d="M 3122 3366 
L 3122 2828 
Q 2878 2963 2633 3030 
Q 2388 3097 2138 3097 
Q 1578 3097 1268 2742 
Q 959 2388 959 1747 
Q 959 1106 1268 751 
Q 1578 397 2138 397 
Q 2388 397 2633 464 
Q 2878 531 3122 666 
L 3122 134 
Q 2881 22 2623 -34 
Q 2366 -91 2075 -91 
Q 1284 -91 818 406 
Q 353 903 353 1747 
Q 353 2603 823 3093 
Q 1294 3584 2113 3584 
Q 2378 3584 2631 3529 
Q 2884 3475 3122 3366 
z
" transform="scale(0.015625)"/>
      <path id="DejaVuSans-6b" d="M 581 4863 
L 1159 4863 
L 1159 1991 
L 2875 3500 
L 3609 3500 
L 1753 1863 
L 3688 0 
L 2938 0 
L 1159 1709 
L 1159 0 
L 581 0 
L 581 4863 
z
" transform="scale(0.015625)"/>
      <path id="DejaVuSans-2d" d="M 313 2009 
L 1997 2009 
L 1997 1497 
L 313 1497 
L 313 2009 
z
" transform="scale(0.015625)"/>
      <path id="DejaVuSans-65" d="M 3597 1894 
L 3597 1613 
L 953 1613 
Q 991 1019 1311 708 
Q 1631 397 2203 397 
Q 2534 397 2845 478 
Q 3156 559 3463 722 
L 3463 178 
Q 3153 47 2828 -22 
Q 2503 -91 2169 -91 
Q 1331 -91 842 396 
Q 353 884 353 1716 
Q 353 2575 817 3079 
Q 1281 3584 2069 3584 
Q 2775 3584 3186 3129 
Q 3597 2675 3597 1894 
z
M 3022 2063 
Q 3016 2534 2758 2815 
Q 2500 3097 2075 3097 
Q 1594 3097 1305 2825 
Q 1016 2553 972 2059 
L 3022 2063 
z
" transform="scale(0.015625)"/>
      <path id="DejaVuSans-76" d="M 191 3500 
L 800 3500 
L 1894 563 
L 2988 3500 
L 3597 3500 
L 2284 0 
L 1503 0 
L 191 3500 
z
" transform="scale(0.015625)"/>
     </defs>
     <use xlink:href="#DejaVuSans-52"/>
     <use xlink:href="#DejaVuSans-4f" transform="translate(69.482422 0)"/>
     <use xlink:href="#DejaVuSans-43" transform="translate(148.193359 0)"/>
     <use xlink:href="#DejaVuSans-20" transform="translate(218.017578 0)"/>
     <use xlink:href="#DejaVuSans-2014" transform="translate(249.804688 0)"/>
     <use xlink:href="#DejaVuSans-20" transform="translate(349.804688 0)"/>
     <use xlink:href="#DejaVuSans-62" transform="translate(381.591797 0)"/>
     <use xlink:href="#DejaVuSans-6c" transform="translate(445.068359 0)"/>
     <use xlink:href="#DejaVuSans-6f" transform="translate(472.851562 0)"/>
     <use xlink:href="#DejaVuSans-63" transform="translate(534.033203 0)"/>
     <use xlink:href="#DejaVuSans-6b" transform="translate(589.013672 0)"/>
     <use xlink:href="#DejaVuSans-2d" transform="translate(646.923828 0)"/>
     <use xlink:href="#DejaVuSans-6c" transform="translate(683.007812 0)"/>
     <use xlink:href="#DejaVuSans-65" transform="translate(710.791016 0)"/>
     <use xlink:href="#DejaVuSans-76" transform="translate(772.314453 0)"/>
     <use xlink:href="#DejaVuSans-65" transform="translate(831.494141 0)"/>
     <use xlink:href="#DejaVuSans-6c" transform="translate(893.017578 0)"/>
    </g>
   </g>
   <g id="legend_1">
    <g id="patch_7">
     <path d="M 54.72 49.558125 
L 177.654375 49.558125 
Q 179.654375 49.558125 179.654375 47.558125 
L 179.654375 33.88 
Q 179.654375 31.88 177.654375 31.88 
L 54.72 31.88 
Q 52.72 31.88 52.72 33.88 
L 52.72 47.558125 
Q 52.72 49.558125 54.72 49.558125 
z
" style="fill: #ffffff; opacity: 0.8; stroke: #cccccc; stroke-linejoin: miter"/>
    </g>
    <g id="line2d_27">
     <path d="M 56.72 39.978437 
L 66.72 39.978437 
L 76.72 39.978437 
" style="fill: none; stroke: #1f77b4; stroke-width: 2; stroke-linecap: square"/>
    </g>
    <g id="text_16">
     <!-- ROC (AUC=0.891) -->
     <g transform="translate(84.72 43.478437) scale(0.1 -0.1)">
      <defs>
       <path id="DejaVuSans-28" d="M 1984 4856 
Q 1566 4138 1362 3434 
Q 1159 2731 1159 2009 
Q 1159 1288 1364 580 
Q 1569 -128 1984 -844 
L 1484 -844 
Q 1016 -109 783 600 
Q 550 1309 550 2009 
Q 550 2706 781 3412 
Q 1013 4119 1484 4856 
L 1984 4856 
z
" transform="scale(0.015625)"/>
       <path id="DejaVuSans-41" d="M 2188 4044 
L 1331 1722 
L 3047 1722 
L 2188 4044 
z
M 1831 4666 
L 2547 4666 
L 4325 0 
L 3669 0 
L 3244 1197 
L 1141 1197 
L 716 0 
L 50 0 
L 1831 4666 
z
" transform="scale(0.015625)"/>
       <path id="DejaVuSans-55" d="M 556 4666 
L 1191 4666 
L 1191 1831 
Q 1191 1081 1462 751 
Q 1734 422 2344 422 
Q 2950 422 3222 751 
Q 3494 1081 3494 1831 
L 3494 4666 
L 4128 4666 
L 4128 1753 
Q 4128 841 3676 375 
Q 3225 -91 2344 -91 
Q 1459 -91 1007 375 
Q 556 841 556 1753 
L 556 4666 
z
" transform="scale(0.015625)"/>
       <path id="DejaVuSans-3d" d="M 678 2906 
L 4684 2906 
L 4684 2381 
L 678 2381 
L 678 2906 
z
M 678 1631 
L 4684 1631 
L 4684 1100 
L 678 1100 
L 678 1631 
z
" transform="scale(0.015625)"/>
       <path id="DejaVuSans-39" d="M 703 97 
L 703 672 
Q 941 559 1184 500 
Q 1428 441 1663 441 
Q 2288 441 2617 861 
Q 2947 1281 2994 2138 
Q 2813 1869 2534 1725 
Q 2256 1581 1919 1581 
Q 1219 1581 811 2004 
Q 403 2428 403 3163 
Q 403 3881 828 4315 
Q 1253 4750 1959 4750 
Q 2769 4750 3195 4129 
Q 3622 3509 3622 2328 
Q 3622 1225 3098 567 
Q 2575 -91 1691 -91 
Q 1453 -91 1209 -44 
Q 966 3 703 97 
z
M 1959 2075 
Q 2384 2075 2632 2365 
Q 2881 2656 2881 3163 
Q 2881 3666 2632 3958 
Q 2384 4250 1959 4250 
Q 1534 4250 1286 3958 
Q 1038 3666 1038 3163 
Q 1038 2656 1286 2365 
Q 1534 2075 1959 2075 
z
" transform="scale(0.015625)"/>
       <path id="DejaVuSans-29" d="M 513 4856 
L 1013 4856 
Q 1481 4119 1714 3412 
Q 1947 2706 1947 2009 
Q 1947 1309 1714 600 
Q 1481 -109 1013 -844 
L 513 -844 
Q 928 -128 1133 580 
Q 1338 1288 1338 2009 
Q 1338 2731 1133 3434 
Q 928 4138 513 4856 
z
" transform="scale(0.015625)"/>
      </defs>
      <use xlink:href="#DejaVuSans-52"/>
      <use xlink:href="#DejaVuSans-4f" transform="translate(69.482422 0)"/>
      <use xlink:href="#DejaVuSans-43" transform="translate(148.193359 0)"/>
      <use xlink:href="#DejaVuSans-20" transform="translate(218.017578 0)"/>
      <use xlink:href="#DejaVuSans-28" transform="translate(249.804688 0)"/>
      <use xlink:href="#DejaVuSans-41" transform="translate(288.818359 0)"/>
      <use xlink:href="#DejaVuSans-55" transform="translate(357.226562 0)"/>
      <use xlink:href="#DejaVuSans-43" transform="translate(430.419922 0)"/>
      <use xlink:href="#DejaVuSans-3d" transform="translate(500.244141 0)"/>
      <use xlink:href="#DejaVuSans-30" transform="translate(584.033203 0)"/>
      <use xlink:href="#DejaVuSans-2e" transform="translate(647.65625 0)"/>
      <use xlink:href="#DejaVuSans-38" transform="translate(679.443359 0)"/>
      <use xlink:href="#DejaVuSans-39" transform="translate(743.066406 0)"/>
      <use xlink:href="#DejaVuSans-31" transform="translate(806.689453 0)"/>
      <use xlink:href="#DejaVuSans-29" transform="translate(870.3125 0)"/>
     </g>
    </g>
   </g>
  </g>
 </g>
 <defs>
  <clipPath id="p9308cdc3f2">
   <rect x="47.72" y="26.88" width="402.28" height="276.76"/>
  </clipPath>
 </defs>
</svg>
